<svg version="1.2" xmlns="http://www.w3.org/2000/svg" viewBox="0 0 800 800" width="800" height="800">
	<title>analytics</title>
	<style>
		.s0 { fill: #ffffff } 
	</style>
	<g>
		<path class="s0" d="m439.3 639.6c-5.8 0-10.6 4.8-10.6 10.6v15.9h-346.7v-453.6h17.1c5.8 0 10.5-4.8 10.5-10.6 0-5.8-4.7-10.6-10.5-10.6h-27.7c-5.9 0-10.6 4.8-10.6 10.6v474.8c0 5.9 4.7 10.6 10.6 10.6h367.9c5.9 0 10.6-4.7 10.6-10.6v-26.5c0-5.8-4.7-10.6-10.6-10.6z"/>
		<path class="s0" d="m510.9 527.2c-5.8 0-10.6 4.7-10.6 10.6v58.8h-346.8v-453.7h165.9c5.9 0 10.6-4.7 10.6-10.6 0-5.8-4.7-10.5-10.6-10.5h-176.4c-5.9 0-10.6 4.7-10.6 10.5v474.9c0 5.8 4.7 10.6 10.6 10.6h367.9c5.8 0 10.6-4.8 10.6-10.6v-69.4c0-5.9-4.8-10.6-10.6-10.6z"/>
		<path class="s0" d="m510.9 227.1c-5.8 0-10.6 4.8-10.6 10.6v140.4c0 5.8 4.8 10.5 10.6 10.5 5.8 0 10.6-4.7 10.6-10.5v-140.4c0-5.8-4.8-10.6-10.6-10.6z"/>
		<path class="s0" d="m201.3 558.6h49.2c5.9 0 10.6-4.7 10.6-10.6v-108.7c0-5.8-4.7-10.6-10.6-10.6h-49.2c-5.9 0-10.6 4.8-10.6 10.6v108.7c0 5.9 4.7 10.6 10.6 10.6zm10.6-108.7h28.1v87.6h-28.1z"/>
		<path class="s0" d="m307.3 464.2c-5.9 0-10.6 4.7-10.6 10.6v73.2c0 5.9 4.7 10.6 10.6 10.6h49.2c5.9 0 10.6-4.7 10.6-10.6v-36.2c0-5.9-4.7-10.6-10.6-10.6-5.8 0-10.6 4.7-10.6 10.6v25.7h-28v-62.7c0-5.9-4.8-10.6-10.6-10.6z"/>
		<path class="s0" d="m413.2 520c-5.8 0-10.5 4.7-10.5 10.6v17.4c0 5.9 4.7 10.6 10.5 10.6h49.3c5.8 0 10.6-4.7 10.6-10.6v-17.4c0-5.9-4.8-10.6-10.6-10.6-5.9 0-10.6 4.7-10.6 10.6v6.9h-28.1v-6.9c0-5.9-4.7-10.6-10.6-10.6z"/>
		<path class="s0" d="m445.7 230.6c-4.2-4.1-10.9-4.1-15 0l-71.6 71.7c-4.2 4.1-4.2 10.8 0 14.9 4.1 4.2 10.8 4.2 14.9 0l64.2-64.1 12.4 12.4-78.9 78.9c-4.1 4.1-4.1 10.8 0 15 2.1 2 4.8 3.1 7.5 3.1 2.7 0 5.4-1.1 7.5-3.1l86.4-86.4c2-2 3.1-4.7 3.1-7.5 0-2.8-1.2-5.5-3.1-7.5z"/>
		<path class="s0" d="m208.2 376.8c2 2 4.7 3.1 7.5 3.1 2.7 0 5.4-1.1 7.4-3.1l28-28c4.1-4.1 4.1-10.8 0-15-4.1-4.1-10.9-4.1-15 0l-20.4 20.5-12.5-12.4 47.9-47.9c4.1-4.1 4.1-10.8 0-14.9-4.1-4.2-10.9-4.2-15 0l-55.3 55.3c-4.1 4.1-4.1 10.8 0 15z"/>
		<path class="s0" d="m727.3 517.1l-61.7-61.7c-4.1-4.1-10.8-4.1-14.9 0-4.2 4.2-4.2 10.9 0 15l61.7 61.7c3.6 3.7 5.7 8.6 5.7 13.8 0 5.2-2.1 10-5.7 13.7-7.6 7.6-20 7.6-27.5 0l-97.6-97.5c44.1-36.2 72.2-91 72.2-152.4 0-108.6-88.4-197-197-197-108.7 0-197.1 88.4-197.1 197 0 108.7 88.4 197.1 197.1 197.1 39.7 0 76.6-11.8 107.5-32.1l99.9 99.9c7.7 7.6 17.9 11.9 28.7 11.9 10.9 0 21.1-4.3 28.7-11.9 15.9-15.9 15.9-41.6 0-57.5zm-264.8-31.5c-97 0-175.9-78.9-175.9-175.9 0-96.9 78.9-175.8 175.9-175.8 97 0 175.9 78.9 175.9 175.8 0 97-78.9 175.9-175.9 175.9z"/>
		<path class="s0" d="m462.5 165.2c-79.7 0-144.6 64.8-144.6 144.5 0 79.7 64.9 144.6 144.6 144.6 79.7 0 144.5-64.9 144.5-144.6 0-79.7-64.8-144.5-144.5-144.5zm0 267.9c-68 0-123.4-55.3-123.4-123.4 0-68 55.4-123.3 123.4-123.3 68 0 123.4 55.3 123.4 123.3 0 68.1-55.4 123.4-123.4 123.4z"/>
		<path class="s0" d="m195.8 211.9v-15.5c0-5.9-4.7-10.6-10.6-10.6-5.8 0-10.5 4.7-10.5 10.6v15.5c0 5.8 4.7 10.6 10.5 10.6 5.9 0 10.6-4.8 10.6-10.6z"/>
		<path class="s0" d="m230.3 211.9v-33.2c0-5.8-4.7-10.6-10.5-10.6-5.9 0-10.6 4.8-10.6 10.6v33.2c0 5.8 4.7 10.6 10.6 10.6 5.8 0 10.5-4.8 10.5-10.6z"/>
		<path class="s0" d="m264.9 211.9v-5.4c0-5.9-4.8-10.6-10.6-10.6-5.9 0-10.6 4.7-10.6 10.6v5.4c0 5.8 4.7 10.6 10.6 10.6 5.8 0 10.6-4.8 10.6-10.6z"/>
	</g>
</svg>