<?xml version="1.0" encoding="utf-8"?>
<!-- Generator: Adobe Illustrator 27.3.1, SVG Export Plug-In . SVG Version: 6.00 Build 0)  -->
<svg version="1.1" id="Layer_1" xmlns="http://www.w3.org/2000/svg" xmlns:xlink="http://www.w3.org/1999/xlink" x="0px" y="0px"
	 viewBox="0 0 586.8 188.2" style="enable-background:new 0 0 586.8 188.2;" xml:space="preserve">
<style type="text/css">
	.st0{fill:#FFFFFF;}
	.st1{fill:#4DAF4E;}
</style>
<path d="M32.9,0h521.1c18.1,0,32.9,14.4,32.9,32.1v124c0,17.7-14.7,32.1-32.9,32.1H32.9C14.7,188.2,0,173.9,0,156.1v-124
	C0,14.4,14.7,0,32.9,0z"/>
<g>
	<circle class="st0" cx="86.7" cy="93.6" r="57.9"/>
	<path class="st0" d="M87,23.8c-38.2,0-69.2,31-69.2,69.2s31,69.2,69.2,69.2s69.2-31,69.2-69.2S125.3,23.8,87,23.8z M86.7,155.5
		c-34.5,0-62.5-28-62.5-62.5s28-62.5,62.5-62.5s62.5,28,62.5,62.5S121.2,155.5,86.7,155.5z"/>
</g>
<g>
	<path class="st0" d="M553.2,89.8l4.5,6.5h-3.6l-4.2-6h-4.1v6H543V77.3h7.1c4.6,0,7.7,2.6,7.7,6.5C557.8,86.7,556.1,88.9,553.2,89.8
		L553.2,89.8L553.2,89.8z M549.9,80.2h-4v7.1h4c3.1,0,5-1.4,5-3.6S552.9,80.2,549.9,80.2z"/>
	<path class="st0" d="M551.4,105.8c-10.5,0-19-8.5-19-19s8.5-19,19-19s19,8.5,19,19S561.9,105.8,551.4,105.8z M551.4,69.8
		c-9.4,0-17,7.6-17,17s7.6,17,17,17s17-7.6,17-17S560.8,69.8,551.4,69.8z"/>
</g>
<g>
	<g>
		<path class="st0" d="M191.8,72.9c4.5,0,8.2,1.4,11.2,4.3c3,2.9,4.5,6.5,4.5,10.8s-1.5,7.9-4.5,10.8c-3,2.9-6.7,4.3-11.2,4.3h-11.1
			v17h-5.9V72.9L191.8,72.9L191.8,72.9z M191.5,97.5c2.9,0,5.3-0.9,7.2-2.7c1.9-1.8,2.8-4,2.8-6.7s-0.9-5-2.8-6.8s-4.3-2.7-7.2-2.7
			h-10.7v18.8L191.5,97.5L191.5,97.5z"/>
		<path class="st0" d="M215.4,120.3V70.7h5.8v49.6C221.1,120.3,215.4,120.3,215.4,120.3z"/>
		<path class="st0" d="M263.8,83.8h4.6v36.5h-4.8l-0.6-5.6c-1.7,2-3.8,3.6-6.3,4.7c-2.4,1.1-5.1,1.7-8.1,1.7c-3.5,0-6.8-0.8-9.6-2.5
			s-5.1-3.9-6.8-6.8s-2.5-6.2-2.5-9.7c0-5.5,1.8-10,5.4-13.6c3.6-3.6,8.1-5.4,13.5-5.4c2.9,0,5.6,0.6,8.1,1.7s4.6,2.7,6.3,4.7
			L263.8,83.8L263.8,83.8z M239.5,111.7c2.6,2.6,5.8,3.9,9.6,3.9s7-1.3,9.6-3.8c2.5-2.6,3.8-5.8,3.8-9.7s-1.3-7.1-3.8-9.7
			s-5.7-3.8-9.6-3.8s-7.1,1.3-9.6,3.9c-2.6,2.6-3.8,5.8-3.8,9.6S236.9,109,239.5,111.7L239.5,111.7z"/>
	</g>
	<g>
		<path class="st0" d="M298.2,83c4.3,0,7.7,1.4,10.2,4.3s3.9,6.6,3.9,11.1v21.9h-5.8V99.8c0-3.7-0.9-6.6-2.5-8.6c-1.7-2-4.1-3-7.3-3
			s-5.8,1.2-7.9,3.5s-3.2,5.2-3.2,8.7v19.9h-5.8V83.8h4.1l1.1,5.7c1.4-2.1,3.2-3.6,5.5-4.8C292.9,83.5,295.4,83,298.2,83L298.2,83z"
			/>
	</g>
	<g>
		<path class="st0" d="M338.1,115h4v5.3h-4.7c-3.9,0-7-1.1-9.3-3.4c-2.3-2.3-3.4-5.4-3.4-9.4V88.9h-6.4v-1L329.5,76h0.9v7.7h11.5
			v5.2h-11.5v18.4c0,2.5,0.7,4.3,2,5.7C333.7,114.3,335.6,114.9,338.1,115L338.1,115z"/>
		<path class="st0" d="M386.5,121c-4.6,0-8.8-1-12.5-3.1s-6.6-5-8.7-8.7c-2.1-3.7-3.1-7.9-3.1-12.6s1-8.9,3.1-12.6s5-6.6,8.7-8.7
			c3.7-2.1,7.9-3.1,12.5-3.1c5.5,0,10.2,1.5,14.3,4.5s6.8,7.1,8.1,12.2h-6c-1.2-3.4-3.3-6.1-6.2-8c-2.9-1.9-6.3-2.9-10.1-2.9
			c-5.3,0-9.7,1.7-13.1,5.2s-5.1,7.9-5.1,13.4s1.7,9.9,5.1,13.4s7.8,5.2,13.1,5.2c4,0,7.4-1,10.4-3.1s5-4.9,6.2-8.5h6
			c-1.3,5.3-4.1,9.6-8.1,12.7S392.1,121,386.5,121L386.5,121z"/>
		<path class="st0" d="M435.5,83c4.3,0,7.8,1.4,10.3,4.2s3.8,6.5,3.8,11.3v21.9h-5.8V99.8c0-3.7-0.9-6.6-2.5-8.6c-1.7-2-4.1-3-7.3-3
			s-5.8,1.2-7.9,3.5s-3.2,5.2-3.2,8.7v19.9h-5.8V70.7h5.8v18c1.4-1.8,3.2-3.2,5.4-4.3S432.9,83,435.5,83L435.5,83z"/>
		<path class="st0" d="M491.7,83.8h4.6v36.5h-4.8l-0.6-5.6c-1.7,2-3.8,3.6-6.3,4.7s-5.1,1.7-8.1,1.7c-3.5,0-6.8-0.8-9.6-2.5
			s-5.1-3.9-6.8-6.8s-2.5-6.2-2.5-9.7c0-5.5,1.8-10,5.4-13.6s8.1-5.4,13.5-5.4c2.9,0,5.6,0.6,8.1,1.7s4.6,2.7,6.3,4.7L491.7,83.8
			L491.7,83.8z M467.4,111.7c2.5,2.6,5.8,3.9,9.6,3.9s7-1.3,9.6-3.8c2.5-2.6,3.8-5.8,3.8-9.7s-1.3-7.1-3.8-9.7
			c-2.5-2.6-5.7-3.8-9.6-3.8s-7,1.3-9.6,3.9c-2.5,2.6-3.8,5.8-3.8,9.6S464.9,109,467.4,111.7L467.4,111.7z"/>
		<path class="st0" d="M523,115h4v5.3h-4.7c-3.9,0-7-1.1-9.3-3.4c-2.3-2.3-3.4-5.4-3.4-9.4V88.9h-6.4v-1L514.4,76h0.9v7.7h11.5v5.2
			h-11.5v18.4c0,2.5,0.7,4.3,2,5.7C518.6,114.3,520.5,114.9,523,115L523,115z"/>
	</g>
</g>
<g>
	<path class="st1" d="M95,69.7c0.5,5.2-0.3,10-4.3,13.6c-3.6,3.2-7.8,4.2-12.7,3.5c2.4-6.4,6.2-11.3,12.5-14.2
		c-2.5-0.1-7.9,3.2-10.7,6.4c-2.8,3.3-4.5,7.1-5.4,11.5c-0.4-3.8-0.1-7.2,1-10.6c1.7-5,5.2-8.1,10.3-9.3
		C88.7,69.8,91.8,69.8,95,69.7L95,69.7L95,69.7z"/>
	<path class="st1" d="M68.9,104.7c2.2-2.5,3.7-5.2,6.7-6.5c1.6-0.6,3.3-1.1,5-1.2c2.9-0.2,5.9,0,8.8-0.3c7.6-0.7,14.1-6.9,15.6-14.5
		c1.9-9.3-4.6-19-14.3-21c-8.4-1.8-15.4,0.5-20.7,7.5c-2.3,3.1-3.4,6.6-3.4,10.5c0,15.7,0,31.4,0,47.1c0,4-2.6,7.3-6.4,8.1
		c-0.5,0.1-1.1,0.1-1.7,0.2c0-0.5,0-0.8,0-1.2c0-18.2,0-36.5,0-54.7c0-12,8.6-22.6,20.3-25.3c10-2.3,19-0.2,26.5,6.8
		c6.3,5.9,8.8,13.4,7.8,22c-1.4,11.3-9.7,20.1-20.8,22.2c-1.7,0.3-3.4,0.3-5.1,0.3c-5.8,0-11.6,0-17.4,0
		C69.5,104.7,69.3,104.7,68.9,104.7L68.9,104.7L68.9,104.7z"/>
</g>
</svg>
