<?xml version="1.0" encoding="UTF-8"?>
<svg id="Layer_1" data-name="Layer 1" xmlns="http://www.w3.org/2000/svg" xmlns:xlink="http://www.w3.org/1999/xlink" viewBox="0 0 443 673.4">
  <defs>
    <style>
      .cls-1 {
        fill: url(#linear-gradient-2);
      }

      .cls-2 {
        fill: url(#linear-gradient-51);
      }

      .cls-3 {
        fill: url(#linear-gradient-17);
      }

      .cls-4 {
        fill: url(#linear-gradient-43);
      }

      .cls-5 {
        fill: url(#linear-gradient-15);
      }

      .cls-6 {
        fill: url(#linear-gradient-58);
      }

      .cls-7 {
        fill: url(#linear-gradient-18);
      }

      .cls-8 {
        fill: url(#linear-gradient-56);
      }

      .cls-9 {
        fill: url(#linear-gradient-40);
      }

      .cls-10 {
        fill: url(#linear-gradient-52);
      }

      .cls-11 {
        fill: url(#linear-gradient-28);
      }

      .cls-12 {
        fill: url(#linear-gradient-14);
      }

      .cls-13 {
        fill: url(#linear-gradient-36);
      }

      .cls-14 {
        fill: url(#linear-gradient-20);
      }

      .cls-15 {
        fill: url(#linear-gradient-6);
      }

      .cls-16 {
        fill: url(#linear-gradient-53);
      }

      .cls-17 {
        fill: url(#linear-gradient-60);
      }

      .cls-18 {
        fill: url(#linear-gradient-35);
      }

      .cls-19 {
        fill: url(#linear-gradient-48);
      }

      .cls-20 {
        fill: url(#linear-gradient-32);
      }

      .cls-21 {
        fill: url(#linear-gradient-11);
      }

      .cls-22 {
        fill: url(#linear-gradient-50);
      }

      .cls-23 {
        fill: url(#linear-gradient-63);
      }

      .cls-24 {
        fill: url(#linear-gradient-39);
      }

      .cls-25 {
        fill: url(#linear-gradient-10);
      }

      .cls-26 {
        fill: url(#linear-gradient-59);
      }

      .cls-27 {
        fill: url(#linear-gradient-49);
      }

      .cls-28 {
        fill: url(#linear-gradient-37);
      }

      .cls-29 {
        fill: url(#linear-gradient-16);
      }

      .cls-30 {
        fill: url(#linear-gradient-31);
      }

      .cls-31 {
        fill: url(#linear-gradient-61);
      }

      .cls-32 {
        fill: url(#linear-gradient-62);
      }

      .cls-33 {
        fill: url(#linear-gradient-41);
      }

      .cls-34 {
        fill: url(#linear-gradient-21);
      }

      .cls-35 {
        fill: url(#linear-gradient-25);
      }

      .cls-36 {
        fill: url(#linear-gradient-5);
      }

      .cls-37 {
        fill: url(#linear-gradient-64);
      }

      .cls-38 {
        fill: url(#linear-gradient-54);
      }

      .cls-39 {
        fill: url(#linear-gradient-45);
      }

      .cls-40 {
        fill: url(#linear-gradient-55);
      }

      .cls-41 {
        fill: url(#linear-gradient-34);
      }

      .cls-42 {
        fill: #e9eaea;
      }

      .cls-43 {
        fill: #e8e8e8;
      }

      .cls-44 {
        fill: url(#linear-gradient-7);
      }

      .cls-45 {
        fill: url(#linear-gradient-24);
      }

      .cls-46 {
        fill: url(#linear-gradient-9);
      }

      .cls-47 {
        fill: url(#linear-gradient-22);
      }

      .cls-48 {
        fill: url(#linear-gradient-42);
      }

      .cls-49 {
        fill: url(#linear-gradient-3);
      }

      .cls-50 {
        fill: url(#linear-gradient);
      }

      .cls-51 {
        fill: url(#linear-gradient-27);
      }

      .cls-52 {
        fill: url(#linear-gradient-33);
      }

      .cls-53 {
        fill: url(#linear-gradient-38);
      }

      .cls-54 {
        fill: url(#linear-gradient-29);
      }

      .cls-55 {
        fill: url(#linear-gradient-30);
      }

      .cls-56 {
        fill: url(#linear-gradient-23);
      }

      .cls-57 {
        fill: url(#linear-gradient-19);
      }

      .cls-58 {
        fill: url(#linear-gradient-4);
      }

      .cls-59 {
        fill: url(#linear-gradient-8);
      }

      .cls-60 {
        fill: url(#linear-gradient-44);
      }

      .cls-61 {
        fill: url(#linear-gradient-57);
      }

      .cls-62 {
        fill: url(#linear-gradient-47);
      }

      .cls-63 {
        fill: url(#linear-gradient-46);
      }

      .cls-64 {
        fill: url(#linear-gradient-12);
      }

      .cls-65 {
        fill: url(#linear-gradient-13);
      }

      .cls-66 {
        fill: url(#linear-gradient-26);
      }
    </style>
    <linearGradient id="linear-gradient" x1="219.68" y1="670.4" x2="219.68" y2="214.81" gradientUnits="userSpaceOnUse">
      <stop offset="0" stop-color="#f8f8f8"/>
      <stop offset="1" stop-color="#2f704f"/>
    </linearGradient>
    <linearGradient id="linear-gradient-2" x1="391.96" y1="35.99" x2="407.98" y2="19.96" gradientUnits="userSpaceOnUse">
      <stop offset="0" stop-color="#f8f8f8"/>
      <stop offset="1" stop-color="#4f7e62"/>
    </linearGradient>
    <linearGradient id="linear-gradient-3" x1="370.04" y1="65.78" x2="401.13" y2="34.69" xlink:href="#linear-gradient-2"/>
    <linearGradient id="linear-gradient-4" x1="404.11" y1="60.52" x2="424.67" y2="39.96" xlink:href="#linear-gradient-2"/>
    <linearGradient id="linear-gradient-5" x1="369.58" y1="73.42" x2="430.39" y2="12.61" xlink:href="#linear-gradient-2"/>
    <linearGradient id="linear-gradient-6" x1="376.92" y1="190.81" x2="421.56" y2="146.16" xlink:href="#linear-gradient-2"/>
    <linearGradient id="linear-gradient-7" x1="369.58" y1="194.72" x2="430.39" y2="133.92" xlink:href="#linear-gradient-2"/>
    <linearGradient id="linear-gradient-8" x1="387.39" y1="297.53" x2="406.31" y2="278.61" xlink:href="#linear-gradient-2"/>
    <linearGradient id="linear-gradient-9" x1="370.86" y1="297.35" x2="392.89" y2="275.32" xlink:href="#linear-gradient-2"/>
    <linearGradient id="linear-gradient-10" x1="394.05" y1="297.14" x2="412.19" y2="279" xlink:href="#linear-gradient-2"/>
    <linearGradient id="linear-gradient-11" x1="406.61" y1="297.82" x2="429.58" y2="274.85" xlink:href="#linear-gradient-2"/>
    <linearGradient id="linear-gradient-12" x1="369.58" y1="316.22" x2="430.39" y2="255.41" xlink:href="#linear-gradient-2"/>
    <linearGradient id="linear-gradient-13" x1="22.65" y1="300.32" x2="62.7" y2="260.27" xlink:href="#linear-gradient-2"/>
    <linearGradient id="linear-gradient-14" x1="12.61" y1="316.22" x2="73.42" y2="255.41" xlink:href="#linear-gradient-2"/>
    <linearGradient id="linear-gradient-15" x1="20.46" y1="65.57" x2="62.4" y2="23.64" xlink:href="#linear-gradient-2"/>
    <linearGradient id="linear-gradient-16" x1="14.06" y1="73.42" x2="74.86" y2="12.61" xlink:href="#linear-gradient-2"/>
    <linearGradient id="linear-gradient-17" x1="24.79" y1="186.91" x2="64.36" y2="147.35" xlink:href="#linear-gradient-2"/>
    <linearGradient id="linear-gradient-18" x1="14.06" y1="197.77" x2="74.86" y2="136.97" xlink:href="#linear-gradient-2"/>
    <linearGradient id="linear-gradient-19" x1="173.42" y1="36.24" x2="216.73" y2="36.24" xlink:href="#linear-gradient"/>
    <linearGradient id="linear-gradient-20" x1="204.35" y1="30.63" x2="217.79" y2="30.63" gradientTransform="translate(62.85 -122.73) rotate(37.72)" xlink:href="#linear-gradient"/>
    <linearGradient id="linear-gradient-21" x1="179.65" y1="16.86" x2="200.61" y2="16.86" gradientTransform="translate(67.61 -129.51) rotate(45)" xlink:href="#linear-gradient"/>
    <linearGradient id="linear-gradient-22" x1="174.07" y1="32.92" x2="184.15" y2="22.84" xlink:href="#linear-gradient"/>
    <linearGradient id="linear-gradient-23" x1="193.69" y1="12.91" x2="201.38" y2="5.22" xlink:href="#linear-gradient"/>
    <linearGradient id="linear-gradient-24" x1="200.08" y1="39.99" x2="207.53" y2="32.55" xlink:href="#linear-gradient"/>
    <linearGradient id="linear-gradient-25" x1="214.36" y1="28.75" x2="219.19" y2="23.93" xlink:href="#linear-gradient"/>
    <linearGradient id="linear-gradient-26" x1="213.48" y1="48.44" x2="217.92" y2="44" xlink:href="#linear-gradient"/>
    <linearGradient id="linear-gradient-27" x1="170.39" y1="47.12" x2="176.6" y2="40.91" xlink:href="#linear-gradient"/>
    <linearGradient id="linear-gradient-28" x1="266.28" y1="59.46" x2="290.89" y2="59.46" gradientTransform="translate(220.42 -219.4) rotate(66.17)" xlink:href="#linear-gradient"/>
    <linearGradient id="linear-gradient-29" x1="244.09" y1="80.62" x2="262.17" y2="80.62" gradientTransform="translate(25.68 -56.64) rotate(13.44)" xlink:href="#linear-gradient"/>
    <linearGradient id="linear-gradient-30" x1="255.38" y1="78.02" x2="292.15" y2="78.02" xlink:href="#linear-gradient"/>
    <linearGradient id="linear-gradient-31" x1="296.47" y1="85.84" x2="287.8" y2="54.84" xlink:href="#linear-gradient"/>
    <linearGradient id="linear-gradient-32" x1="287.5" y1="104.01" x2="277.77" y2="84.3" xlink:href="#linear-gradient"/>
    <linearGradient id="linear-gradient-33" x1="267.39" y1="88.16" x2="258.92" y2="72.59" xlink:href="#linear-gradient"/>
    <linearGradient id="linear-gradient-34" x1="259.12" y1="104.3" x2="254.91" y2="89.33" xlink:href="#linear-gradient"/>
    <linearGradient id="linear-gradient-35" x1="246.94" y1="88.8" x2="243.59" y2="78.16" xlink:href="#linear-gradient"/>
    <linearGradient id="linear-gradient-36" x1="266.8" y1="62.79" x2="266.5" y2="51.26" xlink:href="#linear-gradient"/>
    <linearGradient id="linear-gradient-37" x1="314.79" y1="447.59" x2="364.7" y2="514.13" xlink:href="#linear-gradient"/>
    <linearGradient id="linear-gradient-38" x1="310.87" y1="450.53" x2="360.78" y2="517.07" xlink:href="#linear-gradient"/>
    <linearGradient id="linear-gradient-39" x1="309.1" y1="451.85" x2="359.01" y2="518.4" xlink:href="#linear-gradient"/>
    <linearGradient id="linear-gradient-40" x1="309.63" y1="451.46" x2="359.53" y2="518" xlink:href="#linear-gradient"/>
    <linearGradient id="linear-gradient-41" x1="310.16" y1="451.06" x2="360.07" y2="517.6" xlink:href="#linear-gradient"/>
    <linearGradient id="linear-gradient-42" x1="316.59" y1="446.23" x2="366.5" y2="512.77" xlink:href="#linear-gradient"/>
    <linearGradient id="linear-gradient-43" x1="316.07" y1="446.63" x2="365.97" y2="513.17" xlink:href="#linear-gradient"/>
    <linearGradient id="linear-gradient-44" x1="315.53" y1="447.03" x2="365.44" y2="513.57" xlink:href="#linear-gradient"/>
    <linearGradient id="linear-gradient-45" x1="312.83" y1="449.06" x2="362.74" y2="515.6" xlink:href="#linear-gradient"/>
    <linearGradient id="linear-gradient-46" x1="313.53" y1="448.53" x2="363.44" y2="515.07" xlink:href="#linear-gradient"/>
    <linearGradient id="linear-gradient-47" x1="314.06" y1="448.14" x2="363.96" y2="514.68" xlink:href="#linear-gradient"/>
    <linearGradient id="linear-gradient-48" x1="312.18" y1="449.54" x2="362.09" y2="516.08" xlink:href="#linear-gradient"/>
    <linearGradient id="linear-gradient-49" x1="311.87" y1="450.35" x2="360.97" y2="515.81" xlink:href="#linear-gradient"/>
    <linearGradient id="linear-gradient-50" x1="40.92" y1="490.94" x2="88.37" y2="464.24" gradientTransform="translate(-109.88 78.97) rotate(-15.63)" xlink:href="#linear-gradient"/>
    <linearGradient id="linear-gradient-51" x1="23.91" y1="500.51" x2="105.37" y2="454.68" gradientTransform="translate(-109.88 78.97) rotate(-15.63)" xlink:href="#linear-gradient"/>
    <linearGradient id="linear-gradient-52" x1="46.52" y1="487.79" x2="82.73" y2="467.41" gradientTransform="translate(-109.88 78.97) rotate(-15.63)" xlink:href="#linear-gradient"/>
    <linearGradient id="linear-gradient-53" x1="60.78" y1="477.59" x2="68.5" y2="477.59" gradientTransform="translate(-109.88 78.97) rotate(-15.63)" xlink:href="#linear-gradient"/>
    <linearGradient id="linear-gradient-54" x1="74.31" y1="449.71" x2="79.18" y2="449.71" gradientTransform="translate(-109.88 78.97) rotate(-15.63)" xlink:href="#linear-gradient"/>
    <linearGradient id="linear-gradient-55" x1="47.49" y1="484.03" x2="52.13" y2="484.03" gradientTransform="translate(-109.88 78.97) rotate(-15.63)" xlink:href="#linear-gradient"/>
    <linearGradient id="linear-gradient-56" x1="182.17" y1="567.3" x2="214.97" y2="622.62" gradientTransform="translate(-170.49 299.64) rotate(-36.83)" xlink:href="#linear-gradient"/>
    <linearGradient id="linear-gradient-57" x1="203.45" y1="554.68" x2="236.25" y2="610" gradientTransform="translate(-170.49 299.64) rotate(-36.83)" xlink:href="#linear-gradient"/>
    <linearGradient id="linear-gradient-58" x1="203.74" y1="554.51" x2="236.54" y2="609.83" gradientTransform="translate(-170.49 299.64) rotate(-36.83)" xlink:href="#linear-gradient"/>
    <linearGradient id="linear-gradient-59" x1="196.46" y1="558.83" x2="229.25" y2="614.14" gradientTransform="translate(-170.49 299.64) rotate(-36.83)" xlink:href="#linear-gradient"/>
    <linearGradient id="linear-gradient-60" x1="210.74" y1="550.36" x2="243.54" y2="605.68" gradientTransform="translate(-170.49 299.64) rotate(-36.83)" xlink:href="#linear-gradient"/>
    <linearGradient id="linear-gradient-61" x1="217.92" y1="546.1" x2="250.72" y2="601.42" gradientTransform="translate(-170.49 299.64) rotate(-36.83)" xlink:href="#linear-gradient"/>
    <linearGradient id="linear-gradient-62" x1="189.1" y1="563.19" x2="221.9" y2="618.51" gradientTransform="translate(-170.49 299.64) rotate(-36.83)" xlink:href="#linear-gradient"/>
    <linearGradient id="linear-gradient-63" x1="189.45" y1="562.98" x2="222.25" y2="618.3" gradientTransform="translate(-170.49 299.64) rotate(-36.83)" xlink:href="#linear-gradient"/>
    <linearGradient id="linear-gradient-64" x1="175.17" y1="571.44" x2="207.97" y2="626.76" gradientTransform="translate(-170.49 299.64) rotate(-36.83)" xlink:href="#linear-gradient"/>
  </defs>
  <path class="cls-50" d="m374.75,386.52c-.44-.39-1.04-.55-1.62-.69-1.78-.45-3.54-.96-5.29-1.51-1.01-.32-2.04-.67-2.93-1.26-1.85-1.22-3.01-3.37-5-4.34-1.82-.88-4.05-.64-5.76-1.4-2.41.36-4.91.2-7.05-.97-2.24.51-2.43-1.42-3.4-2.73-1.12-1.51-2.24-3.02-3.26-4.61-6.75-10.46-10.17-23.25-13.87-35.13-1.13-3.62-2.18-7.27-3.5-10.82-3.27-8.82-8.13-17.05-14.29-24.16-4.19-4.84-7.04-10.77-7.88-17.11-.81-6.09-4.23-11.23-5.93-16.98-3.03-10.22-.47-21.56-4.07-31.59-3.41-9.48-12.65-16.67-22.71-17.31-4.53-.29-8.89-2.66-13.28-3.84-5.79-1.57-11.74-3.2-15.83-8.18-1.54-1.88-2.43-4.25-2.52-6.68-.03-.87.03-1.75.33-2.58.42-1.2,1.29-2.17,2.02-3.21,2.27-3.22,3.31-7.27,2.88-11.18.51.62,1.18.56,1.99.58.85.02,1.73-.01,2.5-.38,1-.48,1.68-1.47,2.03-2.51.35-1.05.42-2.17.48-3.27.14-2.51.29-5.01.43-7.52.06-1.05.08-2.09.08-3.14,0-1.26.03-2.62-.59-3.74-.08-.14-.17-.28-.3-.36-.11-.07-.23-.09-.35-.11-.63-.1-1.28-.04-1.88.18.11-4.32-.05-9.09-.52-13.38-.47-4.29-1.55-8.57-3.68-12.33-2.78-4.91-7.4-8.81-12.79-10.48-3.09-.96-6.28-.85-9.51-1-3.23.15-6.42.04-9.51,1-5.39,1.68-10.01,5.57-12.79,10.48-2.13,3.76-3.2,8.04-3.68,12.33-.47,4.29-.64,9.07-.52,13.38-.6-.22-1.25-.28-1.88-.18-.12.02-.25.05-.35.11-.14.08-.23.22-.3.36-.62,1.12-.59,2.48-.59,3.73,0,1.05.02,2.09.08,3.14.14,2.51.29,5.02.43,7.53.06,1.1.13,2.22.48,3.27s1.03,2.04,2.03,2.51c.77.37,1.65.41,2.5.38.8-.02,1.47.04,1.99-.58-.43,3.91.62,7.97,2.88,11.18.73,1.04,1.6,2.02,2.02,3.21.29.82.36,1.71.33,2.58-.09,2.43-.98,4.8-2.52,6.68-4.08,4.97-10.04,6.61-15.83,8.17-4.39,1.19-8.74,3.56-13.28,3.84-10.05.64-19.3,7.83-22.71,17.31-3.6,10.03-1.04,21.37-4.07,31.59-1.71,5.75-5.12,10.9-5.93,16.99-.84,6.34-3.7,12.27-7.88,17.11-6.16,7.11-11.03,15.34-14.29,24.16-1.32,3.56-2.37,7.2-3.5,10.82-3.69,11.89-7.12,24.67-13.87,35.13-1.55,2.41-3.34,4.66-5,6.99-.16.23-.41.38-.68.42-3.59.52-7.18,1.03-10.77,1.55-1.03.15-2.09.3-3.03.76-1.99.97-3.15,3.12-5,4.34-.89.59-1.91.93-2.93,1.26-1.75.56-3.51,1.06-5.29,1.51-.57.15-1.17.3-1.62.69-.75.67-.81,1.9-.34,2.79.47.89,1.37,1.49,2.29,1.89,2.59,1.12,5.58.95,8.29.17,2.71-.78,5.21-2.14,7.75-3.36.39-.19.85-.38,1.25-.2.6.27.58,1.12.44,1.76-1.49,6.84-5.38,12.44-8.56,18.68-1.63,3.21-2.5,6.73-2.61,10.33-.03.88,0,1.8.36,2.6.2.43.5.83.9,1.08.46.29,1.01.38,1.55.35.52-.02,1.05-.16,1.43-.5.32-.29.51-.69.68-1.08,1.15-2.65,1.79-5.49,2.63-8.26.84-2.77,1.91-5.53,3.77-7.75.22-.26.83-.83,1.15-.44.32.4.12.91-.05,1.32-.24.57-.48,1.14-.71,1.71-.62,1.55-1.07,3.17-1.82,4.66-.56,1.47-1.06,2.96-1.5,4.47-.15.52-.39,1.44-.52,1.97-.16.7-.41,1.49-.41,2.2-.15,1.09-.12,2.13-.14,3.22-.04,1.5-.26,3.02,1.14,4.02,1.06.75,2.72.59,3.47-.47.45-.63.53-1.45.6-2.22.18-1.82.42-3.64.76-5.45.43-2.29,1.03-4.55,1.86-6.72.49-1.28,1.09-2.51,1.75-3.72.29-.54.62-1.15.93-1.71.25-.45.54-1.31,1.16-1.32,1.31-.04.38,2.83.25,3.42-.36,1.66-.75,3.31-1.18,4.96-.59,2.26-1.24,4.5-1.96,6.72-.34,1.04-.78,2.09-1.02,3.16-.1.44-.18.9-.15,1.35.03.39.44.89.44,1.18.54.61,1.51.68,2.26.37.75-.31,1.33-.92,1.87-1.54.68-.79,1.33-1.63,1.75-2.59.28-.65.45-1.33.62-2.02,1.04-4.12,2.25-8.2,3.69-12.19.16-.45.33-.91.66-1.25.33-.34.85-.54,1.29-.35,1.29.56.58,2.91.43,3.89-.25,1.68-.58,3.35-.95,5.01-.27,1.22-.57,2.43-.89,3.64-.23.89-.45,2.37.07,3.22.26.42.73.67,1.22.73.48.07.98-.03,1.44-.18.38-.12.76-.29,1.08-.53,1.35-.99,1.48-2.71,1.54-4.25.07-1.99.42-3.95.8-5.9.25-1.25.55-2.49.76-3.75.14-.81.15-1.63.4-2.41.24-.78.55-1.55.9-2.29.62-1.29,1.4-2.49,2.03-3.77.28-.56.4-1.12.63-1.7.26-.65.49-1.3.7-1.96,1.08-3.44,1.5-7.06,2.42-10.55,4.23-16.01,18.32-27.33,26.19-41.9,2.25-4.16,3.98-8.58,5.7-12.98,3.45-8.8,6.9-17.6,10.34-26.41,1.31-3.34,2.57-6.72,4.32-9.87.88-1.59,1.88-3.12,3.06-4.51.71-.84,3.07-3.88,3.11-1.13,0,.61-.16,1.21-.23,1.82-.19,1.65.63,3.77,1.11,5.34.59,1.92,1.32,3.79,2.06,5.65,1.5,3.74,3.12,7.46,3.96,11.42.67,3.14.83,6.38.78,9.59-.08,5.41-.73,10.8-1.03,16.2-.52,9.31-1.67,18.57-3.51,27.71l-6.73,33.49c-.68,3.38-1.36,6.76-1.76,10.18-.5,4.22-.58,8.47-.59,12.72-.05,16.45.87,32.9,2.75,49.25.37,3.24,2.6,6.13,2.42,9.39-.74,13.31-3.12,26.45-5.25,39.59-2.07,12.76-4.89,26.46-3.27,39.38,1.5,11.99,8.95,24,3.91,36.13-1.71,4.11-2.57,8.57-2.5,13.02.05,3.09.52,6.27-.42,9.21-.88,2.75-2.9,4.96-4.66,7.24-3.49,4.53-6.15,9.69-7.82,15.16-.78,2.55-1.34,5.29-.68,7.88,1.14,4.47,5.5,7.23,9.5,9.54,3.92,2.26,8.34,4.64,13.03,1.19,1.6-1.18,2.81-2.83,3.6-4.65,2.56-5.84,1.38-12.3,2.97-18.28,1.32-4.93,4.52-9.83,3.11-14.74-.37-1.27-1.04-2.5-1.03-3.82,0-.99.4-1.93.7-2.88,1.22-3.94.7-8.17.81-12.29.03-1.06.07-2.13.12-3.19.27-5.33.87-10.64,1.89-15.87.51-2.62,1.18-5.19,1.84-7.77.45-1.74.41-3.48,1.03-5.18,3.62-9.76,5.55-19.58,7.07-29.86.84-5.65.95-11.64,2.68-17.12,1.66-5.27,5.07-9.68,7.81-14.41,10.48-18.07,8.8-40.37,15.82-59.66.81-2.23,1.29-4.59,1.41-6.96.1-2.01-.05-4.03.17-6.02.18-1.66.89-3.44,1.95-4.81.35-.45,1.04-.45,1.39,0,1.05,1.37,1.76,3.15,1.95,4.81.22,2,.07,4.02.17,6.02.12,2.37.6,4.73,1.41,6.96,7.02,19.29,5.33,41.6,15.82,59.66,2.74,4.72,6.15,9.14,7.81,14.41,1.73,5.48,1.84,11.47,2.68,17.12,1.53,10.28,3.46,20.1,7.07,29.86.63,1.69.59,3.44,1.03,5.18.67,2.58,1.34,5.15,1.84,7.77,1.02,5.24,1.62,10.55,1.89,15.87.05,1.06.09,2.13.12,3.19.11,4.12-.41,8.35.81,12.29.29.95.69,1.89.7,2.88.01,1.33-.66,2.55-1.03,3.82-1.41,4.91,1.79,9.81,3.11,14.74,1.59,5.98.41,12.44,2.97,18.28.8,1.82,2,3.47,3.6,4.65,4.69,3.45,9.11,1.08,13.03-1.19,4-2.31,8.36-5.06,9.5-9.54.66-2.59.1-5.32-.68-7.88-1.67-5.47-4.33-10.63-7.82-15.16-1.76-2.29-3.78-4.49-4.66-7.24-.94-2.94-.47-6.12-.42-9.21.07-4.45-.79-8.91-2.5-13.02-5.05-12.12,2.41-24.14,3.91-36.13,1.61-12.92-1.2-26.62-3.27-39.38-2.13-13.14-4.51-26.28-5.25-39.59-.18-3.26,2.05-6.15,2.42-9.39,1.88-16.34,2.8-32.8,2.75-49.25-.01-4.25-.09-8.5-.59-12.72-.62-5.21-1.87-10.33-2.79-15.49-1.72-8.55-3.44-17.09-5.17-25.64-2.7-12.22-3.5-24.04-4.49-36.41-.27-3.34-.54-6.69-.59-10.04-.05-3.21.11-6.45.78-9.59.84-3.95,2.46-7.68,3.96-11.42.75-1.86,1.47-3.73,2.06-5.65.48-1.56,1.3-3.69,1.11-5.34-.07-.61-.24-1.21-.23-1.82.04-2.75,2.4.29,3.11,1.13,1.17,1.39,2.17,2.92,3.06,4.51,1.74,3.14,3.01,6.53,4.32,9.87,3.45,8.8,6.9,17.6,10.34,26.41,1.73,4.4,3.46,8.82,5.7,12.98,7.87,14.57,21.96,25.89,26.19,41.9.92,3.49,1.34,7.11,2.42,10.55.21.66.44,1.32.7,1.96.23.57.35,1.14.63,1.7.63,1.28,1.41,2.48,2.03,3.77.35.74.66,1.5.9,2.29.24.78.26,1.6.4,2.41.21,1.26.52,2.5.76,3.75.38,1.95.73,3.91.8,5.9.06,1.53.19,3.26,1.54,4.25.33.24.7.4,1.08.53.46.15.96.25,1.44.18.48-.07.96-.32,1.22-.73.52-.84.3-2.33.07-3.22-.32-1.21-.62-2.42-.89-3.64-.37-1.66-.7-3.33-.95-5.01-.15-.98-.86-3.33.43-3.89.44-.19.96.01,1.29.35.33.34.5.8.66,1.25,1.44,3.99,2.65,8.07,3.69,12.19.17.68.34,1.37.62,2.02.42.96,1.06,1.8,1.75,2.59.53.62,1.11,1.23,1.87,1.54.75.31,1.72.24,2.26-.37,0-.3.41-.79.44-1.18.03-.45-.05-.91-.15-1.35-.24-1.07-.69-2.11-1.02-3.16-.72-2.22-1.37-4.46-1.96-6.72-.43-1.64-.82-3.3-1.18-4.96-.13-.59-1.05-3.46.25-3.42.61.02.91.88,1.16,1.32.32.56.64,1.17.93,1.71.65,1.2,1.26,2.44,1.75,3.72.83,2.18,1.42,4.44,1.86,6.72.34,1.8.58,3.62.76,5.45.08.77.15,1.59.6,2.22.75,1.06,2.41,1.22,3.47.47,1.41-1,1.18-2.51,1.14-4.02-.03-1.09,0-2.13-.14-3.22,0-.71-.25-1.51-.41-2.2-.13-.57-.35-1.41-.52-1.97-.45-1.51-.95-3-1.5-4.47-.74-1.49-1.2-3.11-1.82-4.66-.23-.57-.47-1.14-.71-1.71-.17-.41-.37-.92-.05-1.32.32-.39.94.18,1.15.44,1.86,2.21,2.93,4.98,3.77,7.75.84,2.77,1.48,5.61,2.63,8.26.17.4.36.8.68,1.08.39.34.92.48,1.43.5.54.03,1.1-.06,1.55-.35.4-.25.7-.65.9-1.08.37-.8.39-1.72.36-2.6-.12-3.6-.98-7.13-2.61-10.33-3.18-6.24-7.07-11.84-8.56-18.68-.14-.64-.15-1.48.44-1.76.4-.18.86,0,1.25.2,2.54,1.23,5.04,2.58,7.75,3.36s5.71.96,8.29-.17c.93-.4,1.82-1,2.29-1.89s.42-2.12-.34-2.79Z"/>
  <g>
    <g>
      <g>
        <path class="cls-1" d="m404.69,17.73c0-1.4-1.14-2.54-2.54-2.54h-4.36c-1.4,0-2.54,1.14-2.54,2.54,0,1.26.93,2.3,2.14,2.5v21.19h5.17v-21.19c1.21-.19,2.14-1.23,2.14-2.5Z"/>
        <path class="cls-49" d="m396.88,38.01c-1.21.69-2.51,1.16-3.85,1.39-.02.03-.03.07-.05.1-2.07,2.41-3.6,5.26-4.52,8.3,0,0,0,0,0,0,.5,1.82,1.37,3.54,2.58,4.99.25.3.3.73,0,1.02-.26.26-.77.3-1.02,0-.88-1.06-1.61-2.23-2.17-3.47-.07.39-.14.78-.19,1.18-.11.91-1.56.92-1.45,0,.22-1.74.62-3.43,1.18-5.06-2.42,1.68-5.25,2.7-8.21,2.94-.93.07-.92-1.37,0-1.45,3.2-.25,6.3-1.57,8.71-3.69.15-.13.31-.18.47-.18.74-1.59,1.65-3.1,2.73-4.52-1.69.01-3.39-.34-5.01-1.06-.85-.38-.11-1.63.73-1.25,3.25,1.47,7.11,1.11,10.04-.9-.03-1.14-.07-2.29-.19-3.41-.05-.49-.12-.98-.21-1.47-.59-3.18-3.32-5.1-6.51-4.15-1.31.39-2.48,1.16-3.58,1.99-9.43,7.18-14.99,19.89-15.59,31.57-.09,1.76-.04,3.57.55,5.23,1.39,3.94,5.54,5.11,9.35,4.61,10.33-1.34,16.26-11.51,16.68-21.18.13-3.01-.14-6-.36-8.99-.06-.84-.09-1.7-.11-2.56Z"/>
        <path class="cls-58" d="m429.21,60.89c-.6-11.67-6.16-24.38-15.59-31.57-1.09-.83-2.26-1.6-3.58-1.99-3.19-.95-5.92.97-6.51,4.15-.09.48-.16.97-.21,1.47-.12,1.12-.16,2.27-.19,3.41,2.93,2.01,6.79,2.37,10.04.9.84-.38,1.58.87.73,1.25-1.62.73-3.32,1.08-5.01,1.06,1.08,1.41,1.99,2.92,2.73,4.52.16,0,.32.05.47.18,2.41,2.12,5.51,3.43,8.71,3.69.92.07.93,1.52,0,1.45-2.97-.24-5.79-1.26-8.21-2.94.56,1.63.97,3.33,1.18,5.06.12.92-1.33.91-1.45,0-.05-.4-.12-.79-.19-1.18-.56,1.25-1.29,2.41-2.17,3.47-.25.3-.76.26-1.02,0-.3-.3-.25-.72,0-1.02,1.21-1.46,2.08-3.17,2.58-4.99,0,0,0,0,0,0-.92-3.04-2.46-5.88-4.52-8.3-.03-.03-.03-.07-.05-.1-1.34-.23-2.64-.7-3.85-1.39-.02.86-.05,1.72-.11,2.56-.22,2.99-.5,5.97-.36,8.99.42,9.67,6.36,19.84,16.68,21.18,3.82.49,7.96-.68,9.35-4.61.59-1.66.64-3.47.55-5.23Z"/>
      </g>
      <path class="cls-36" d="m399.99,86.03c-23.72,0-43.01-19.3-43.01-43.01S376.27,0,399.99,0s43.01,19.3,43.01,43.01-19.3,43.01-43.01,43.01Zm0-84.58c-22.92,0-41.57,18.65-41.57,41.57s18.65,41.57,41.57,41.57,41.57-18.65,41.57-41.57S422.91,1.45,399.99,1.45Z"/>
    </g>
    <g>
      <path class="cls-15" d="m428.01,158.32c-.18-2.7-.91-5.64-2.49-7.95-.41-.6-.88-1.16-1.41-1.65-2.72-2.56-6.48-3.51-10.11-3.67-2.25-.1-4.52.12-6.71.61-1.06.23-2.12.52-3.13.91-.36.14-3.24,1.82-2.99,2.03-1.61-1.38-3.26-2.98-3.01-4.58.66-4.1-5.62-5.87-6.28-1.73-.43,2.69,0,5.08,1.58,7.36,1.72,2.47,4.45,4.02,6.04,6.57,3,4.8,2.01,11.16-2.37,14.75-5.04,4.13-11.31,1.6-17.13,2.97-5.27,1.24-9.6,6.34-7.6,11.89,1.41,3.91,7.71,2.23,6.28-1.73-.55-1.53.17-2.71,1.6-3.33,1.59-.69,3.55-.47,5.02.4.22.13.51.29.68.48.16.18.21.4.32.62.23.49.52.95.84,1.38.65.87,1.46,1.63,2.36,2.23,2.14,1.43,4.71,2.09,7.25,2.46,4.87.72,9.92.48,14.59-1.08,6.32-2.12,11.37-6.59,13.93-12.77,2.02-4.88,3.07-10.89,2.73-16.16Zm-5.51,16.95c-.62,1.09-2.23-.02-1.61-1.11,3.42-6.03,4.34-13.27,2.65-19.97-.31-1.22,1.61-1.59,1.92-.38,1.83,7.23.72,14.98-2.95,21.46Z"/>
      <path class="cls-44" d="m399.99,207.34c-23.72,0-43.01-19.3-43.01-43.02s19.3-43.01,43.01-43.01,43.01,19.3,43.01,43.01-19.3,43.02-43.01,43.02Zm0-84.58c-22.92,0-41.57,18.65-41.57,41.57s18.65,41.57,41.57,41.57,41.57-18.65,41.57-41.57-18.65-41.57-41.57-41.57Z"/>
    </g>
    <g>
      <g>
        <path class="cls-59" d="m399.12,271.48l-3.92.12s0,13.68,0,13.68c0-.23-.49-.53-.65-.67-1.59-1.36-3.63-2.15-5.72-2.24-.39-.02-.81.13-1,.47-.15.26-.15.58-.13.88.05.87.19,1.74.4,2.59,1.79.04,3.56.72,4.94,1.87.67.56,1.14,1.02,1.42,1.87.27.81.35,1.68.39,2.53.17,3.83-.15,7.69-.96,11.44l5.44-.28-.09-32.2s-.1-.06-.12-.06Z"/>
        <path class="cls-46" d="m385.52,284.21c-.17-.06-.33-.13-.49-.2-.08.03-.16.05-.25.07-2.16,1.45-3.15,4.12-2.39,6.68.37,1.26-1.59,1.79-1.96.54-.68-2.29-.27-4.69.97-6.61-2.21.73-4.23,2.09-5.63,3.96-.33.44-.87.67-1.39.36-.44-.25-.7-.95-.36-1.39,2.05-2.72,5-4.6,8.29-5.28-1.14-.97-2.09-2.18-2.69-3.55-.22-.5-.15-1.09.36-1.39.44-.25,1.17-.14,1.39.36.28.65.64,1.27,1.07,1.83.03.04.1.12.1.12.05.06.11.12.16.19.12.13.24.27.37.39.24.24.49.47.76.69.03.03.06.05.09.08,0,0,0,0,0,0,.07.05.13.1.2.14.15.1.3.2.45.3.29.18.59.35.9.5.09.04.18.08.27.12.03.01.03.01.04.02,0,0,0,0,.03.01.05.02.11.04.16.06.45-.64,1.11-1.15,1.59-1.75.75-.95,1.35-2.04,1.7-3.2.43-1.43.42-2.86.06-4.16-.61-2.22-2.26-4.08-4.61-4.97-3.1-1.18-6.64-.24-9.2,1.74-2.23,1.72-3.79,4.2-4.75,6.84-.96,2.64-1.36,5.46-1.54,8.27-.31,4.64.02,9.64,2.81,13.37,1.94,2.6,4.92,4.26,8.09,4.82,2.99.53,6.87.2,9.42-1.63,1.83-1.31,2.81-3.62,2.95-5.8.13-1.97.1-4.32-1.03-6.02-1.2-1.81-5.43-3.09-5.94-5.5Z"/>
        <path class="cls-25" d="m412.28,283.71c.02-.3.02-.62-.13-.88-.2-.34-.62-.49-1-.47-2.09.09-4.13.87-5.72,2.24-.16.14-.65.44-.65.67,0,0,0-13.68,0-13.68l-3.92-.12s-.1.06-.12.06l-.09,32.2,5.44.28c-.8-3.75-1.12-7.61-.96-11.44.04-.85.11-1.72.39-2.53.29-.85.75-1.31,1.42-1.87,1.37-1.15,3.14-1.83,4.94-1.87.21-.85.35-1.72.4-2.59Z"/>
        <path class="cls-21" d="m430.76,284.97c-.19-2.81-.58-5.62-1.54-8.27-.96-2.64-2.53-5.12-4.75-6.84-2.56-1.98-6.1-2.92-9.2-1.74-2.35.89-4,2.75-4.61,4.97-.36,1.31-.36,2.74.06,4.16.35,1.16.95,2.26,1.7,3.2.48.6,1.14,1.11,1.59,1.75.05-.02.11-.04.16-.06.02,0,.03-.01.03-.01.01,0,.02,0,.04-.02.09-.04.18-.08.27-.12.31-.15.61-.31.9-.5.15-.1.3-.19.45-.3.07-.05.13-.1.2-.14,0,0,0,0,0,0,.03-.02.06-.05.09-.08.27-.22.52-.45.76-.69.13-.13.25-.26.37-.39.05-.06.11-.12.16-.19,0,0,.07-.09.1-.12.43-.56.79-1.18,1.07-1.83.22-.5.96-.62,1.39-.36.52.3.59.89.36,1.39-.6,1.37-1.55,2.58-2.69,3.55,3.29.68,6.24,2.57,8.29,5.28.33.44.07,1.14-.36,1.39-.52.3-1.06.08-1.39-.36-1.4-1.87-3.42-3.23-5.63-3.96,1.23,1.92,1.64,4.32.97,6.61-.37,1.25-2.34.72-1.96-.54.76-2.56-.23-5.23-2.39-6.68-.09-.01-.18-.03-.25-.07-.16.07-.32.14-.49.2-.5,2.41-4.74,3.7-5.94,5.5-1.13,1.7-1.16,4.05-1.03,6.02.15,2.18,1.13,4.49,2.96,5.8,2.55,1.83,6.43,2.16,9.42,1.63,3.17-.56,6.15-2.22,8.09-4.82,2.78-3.73,3.12-8.73,2.81-13.37Z"/>
      </g>
      <path class="cls-64" d="m399.99,328.83c-23.72,0-43.01-19.3-43.01-43.01s19.3-43.01,43.01-43.01,43.01,19.3,43.01,43.01-19.3,43.01-43.01,43.01Zm0-84.58c-22.92,0-41.57,18.65-41.57,41.57s18.65,41.57,41.57,41.57,41.57-18.65,41.57-41.57-18.65-41.57-41.57-41.57Z"/>
    </g>
    <g>
      <path class="cls-65" d="m70.42,274.45c-6.68-7.04-16.05-9.78-25.51-7.81-.51.11-.91.31-1.23.58-.02,0-.04.01-.07.02-.89.28-1.65.64-2.47.91,3.12-5.69,12.77-5.62,18.09-3.14,3.35,1.56,6.3-3.42,2.92-5-9.7-4.52-24.15-2.62-27.24,8.56-.34,0-.68-.01-1.01-.01,0-1.42-.09-2.84-.26-4.24,1.61-2.44,3.96-4.08,6.84-4.78,3.62-.88,2.08-6.46-1.54-5.58-2.57.63-4.92,1.84-6.9,3.51-.14-.39-.28-.79-.43-1.18-1.34-3.43-6.94-1.94-5.58,1.54,1.46,3.74,2.13,7.49,2.07,11.41-.44.14-.88.3-1.31.51-4.39,2.07-6.64,7.27-6.53,12.12.11,4.85,2.13,9.45,4.34,13.77,3.34,6.57,6.89,13.42,12.1,18.72,1.3,1.33,2.77,2.6,4.56,3.12,5.58,1.61,9.84-4.08,12.43-8.18,2.79-4.43,5-9.22,6.53-14.23,1.5-4.92,2.72-10.36,2.19-15.53-.18-1.76-.62-3.51-1.34-5.13,1.9,1.07,3.67,2.45,5.26,4.12,2.57,2.71,6.66-1.39,4.09-4.09Zm-38.44-.26c-1.98.21-3.89,1.35-5,3.02-1.22,1.84-1.47,4.15-.76,6.23.3.88-1.09,1.26-1.39.38-.84-2.46-.5-5.33.99-7.47,1.43-2.05,3.68-3.34,6.16-3.61.39-.04.73.36.72.72,0,.42-.33.68-.72.72Z"/>
      <path class="cls-12" d="m43.01,328.83c-23.72,0-43.01-19.3-43.01-43.01s19.3-43.01,43.01-43.01,43.01,19.3,43.01,43.01-19.3,43.01-43.01,43.01Zm0-84.58c-22.92,0-41.57,18.65-41.57,41.57s18.65,41.57,41.57,41.57,41.57-18.65,41.57-41.57-18.65-41.57-41.57-41.57Z"/>
    </g>
    <g>
      <path class="cls-5" d="m74.12,41.72c-.28-3.95-2.53-8.12-5.86-10.26-.91-2.91-2.95-5.44-5.59-6.95-2.64-1.51-5.94-2.43-8.91-1.73-1.72-1.39-3.88-2.22-6.08-2.35-2.2-.13-4.42.45-6.28,1.64-2.97-1.52-6.61-1.69-9.71-.45-2.67,1.06-4.94,3.11-6.22,5.69-.61,1.22-.88,1.53-2.24,1.92-1.58.45-3.09,1.12-4.41,2.1-1.93,1.43-3.43,3.52-3.9,5.88-.24,1.22-.2,2.5.14,3.69.28.99,1.41,1.85,1.59,2.76.17.84-.7,2.4-.83,3.34-.34,2.42.05,4.94,1.15,7.12,1.3,2.58,3.55,4.47,6.12,5.72,1.28.62,2.52,1.36,3.59,2.31.98.86,1.83,1.76,2.4,2.94.71,1.49.33,3.15.06,4.72-.25,1.45-.42,3.01.21,4.34.6,1.26,1.85,2.11,3.17,2.54,1.11.36,2.33.42,3.27-.37,1.54-1.28,1.72-3.47,2.27-5.26.73-2.36,2.22-4.9,3.84-6.76.92-1.06,2.14-1.92,3.52-2.15.96-.16,1.95-.02,2.93-.09s2.02-.44,2.49-1.29c.66.79,1.62,1.53,2.62,1.31.81-.18,1.35-.95,1.65-1.72s.43-1.61.82-2.34c.68-1.28,2.08-2.06,3.51-2.34,1.08-.21,2.19-.18,3.28-.08.91.08,1.75-.06,2.62-.34,1.71-.55,3.07-1.76,4.4-2.91,2.99-2.6,4.67-6.65,4.38-10.6Zm-29.13,14.48c-2.51.63-4.71,2.18-6.15,4.32-.57,2.15-1.67,4.09-2.62,6.09-1.1,2.32-1.7,4.74-1.67,7.31.01,1.24-1.91,1.23-1.92,0-.03-2.66.55-5.21,1.63-7.63.81-1.83,1.83-3.56,2.47-5.45-.02-.1-.03-.21-.02-.33.36-2.94-1.83-5.11-4.12-6.57-.43-.27-.86-.53-1.3-.78-.08.02-.16.04-.25.03-.33-.01-.67,0-1,.04-.02,0-.01,0-.02,0,0,0-.02,0-.06.01-.09.02-.19.03-.28.05-.15.03-.31.07-.46.12-.15.04-.3.09-.45.15-.07.03-.15.06-.22.09-.02,0-.02,0-.03,0,0,0-.02.01-.05.03-.29.14-.57.28-.84.45-.13.08-.26.18-.39.27-.03.02-.04.03-.06.04-.01.01-.03.02-.05.04-.06.05-.12.1-.18.15-.24.21-.46.43-.67.67-.05.06-.1.12-.15.18-.01.02-.02.02-.03.04,0,0-.01.02-.02.03-.1.14-.2.28-.29.43-.17.27-.31.55-.44.84-.21.48-.91.58-1.31.34-.48-.28-.55-.84-.34-1.31.9-2.06,2.78-3.62,4.92-4.26-1.03-.63-2.02-1.32-2.89-2.19-2.38-2.36-3.45-5.65-3.16-8.84-.02-.02-.04-.05-.05-.07-.09-.19-.2-.38-.32-.56,0-.01-.02-.03-.03-.05,0,0-.02-.01-.04-.04-.07-.08-.14-.16-.22-.24-.07-.07-.14-.13-.21-.19,0,0-.02-.02-.04-.03-.03-.02-.07-.05-.08-.06-.16-.11-.33-.2-.5-.29,0,0-.01,0-.02,0-.05-.02-.09-.04-.14-.05-.1-.04-.21-.07-.32-.09-.07-.02-.13-.03-.2-.04-.01,0-.02,0-.03,0-.1,0-.19-.02-.29-.02-.12,0-.25,0-.37,0-.05,0-.09,0-.14.01,0,0,0,0-.01,0-.23.06-.45.1-.67.19-.5.19-1.03-.21-1.18-.67-.17-.52.2-1.01.67-1.18,1.61-.6,3.44-.19,4.7.91.37-1.12.92-2.2,1.66-3.18.74-.97,2.41-.01,1.66.97-1.61,2.11-2.38,4.8-1.85,7.43.53,2.6,2.09,4.67,4.26,6.15,2.24,1.52,4.77,2.56,6.83,4.36,1.26,1.1,2.3,2.55,2.77,4.15,1.62-1.75,3.74-3.04,6.07-3.63.5-.13,1.04.16,1.18.67.14.49-.17,1.05-.67,1.18Zm21.25-21.16c-1.44,1.53-3.29,2.57-5.27,3.05,2.54,2.75,3.56,6.65,2.73,10.36-.27,1.21-2.12.69-1.85-.51.37-1.64.28-3.28-.18-4.81-.08.02-.16.04-.24.06-.16.05-.31.1-.46.16-.01,0-.08.03-.12.05-.04.02-.13.05-.14.06-.3.14-.58.29-.86.47-.15.09-.3.2-.44.3-.03.02-.03.02-.04.03,0,0,0,0-.01.01-.06.05-.12.09-.17.14-.25.21-.49.44-.71.68-.11.12-.22.24-.32.37-.02.02-.05.06-.06.08-.04.06-.09.12-.13.19-.19.27-.35.55-.5.84-.03.07-.07.13-.1.2,0,.02-.06.14-.08.18-.02.04-.04.11-.05.13-.03.08-.06.17-.09.25-.19.56-.86.93-1.41.57l-.2-.13c-.45-.29-.6-.84-.34-1.31.09-.16.23-.29.39-.37,1-2.25,2.99-4.04,5.35-4.73-.6-1.11-1.42-2.11-2.43-2.94-1.26.01-2.53-.19-3.75-.63-2.1-.77-4.01-2.05-6.2-2.58-.77-.19-1.55-.22-2.32-.13-.24.2-.57.24-.87.16-.84.22-1.63.59-2.33,1.12,2.51,1.54,4.28,4.11,4.52,7.15.3,3.69-2.01,7.23-5.61,8.24-3.47.98-7.21-1.02-8.36-4.42-.4-1.18,1.46-1.67,1.85-.51,1.01,3,4.64,4.06,7.28,2.54.46-.27.86-.58,1.22-.94-.14-1.44-.86-2.91-1.97-3.94-1.17-1.1-2.76-1.66-4.33-1.65-1.24,0-1.23-1.91,0-1.92,2.1-.02,4.16.78,5.69,2.21.9.84,1.57,1.88,2,3.02.43-1.31.44-2.78,0-4.16-.88-2.73-3.47-4.61-6.23-5.1-3-.53-6.38.49-8.56,2.63-1.89,1.86-2.76,5.08-.81,7.24.83.92-.53,2.28-1.36,1.36-2.9-3.21-1.67-7.96,1.44-10.52,1.44-1.18,3.19-2.02,5.04-2.45.02-.1.06-.21.08-.31,0,0,0-.05.01-.08,0-.03.01-.09.01-.1.01-.12.02-.23.03-.35,0-.23,0-.47-.01-.7,0-.06,0-.12-.02-.17,0,0,0-.06-.01-.09,0-.03-.01-.08-.01-.08,0-.06-.02-.11-.03-.17-.05-.24-.11-.48-.19-.72-.04-.11-.08-.22-.12-.33,0,0,0-.01,0-.02-.02-.05-.05-.1-.07-.15-.1-.21-.21-.41-.34-.61-.06-.1-.13-.19-.2-.29,0-.01-.02-.02-.02-.03-.03-.04-.06-.08-.1-.12-.35-.41-.38-.95,0-1.36.33-.36,1.03-.39,1.36,0,1.26,1.5,1.86,3.47,1.63,5.4,1.4-.08,2.81.08,4.13.54.06.02.11.04.17.06.68-.63,1.45-1.14,2.28-1.53-1.88-1.82-2.72-4.54-2.13-7.18.11-.51.7-.8,1.18-.67.52.14.78.68.67,1.18-.53,2.38.55,4.71,2.49,5.97.46-.08.93-.12,1.4-.12,1.59,0,3.08.52,4.51,1.16.07-.04.14-.08.22-.1,1.18-.37,2.34-1.16,3.06-2.16.03-.05.06-.1.1-.15-2.74-.85-4.96-3.15-5.71-5.92-.14-.52.17-1.02.67-1.18.49-.16,1.05.19,1.18.67.05.17.1.34.15.5.03.08.05.15.08.23.01.03.02.06.03.08.13.29.27.57.44.85.08.14.17.27.26.41.05.07.1.13.14.2.01.01,0,.01.01.02.01.01.02.03.04.04.2.25.42.49.66.72.13.12.26.24.39.35.05.04.1.08.14.12.01.01.07.06.11.08.26.19.54.36.82.52.14.08.29.15.43.22.02.01.11.05.14.06.05.02.1.04.15.06.23.09.46.15.7.21.2-.67.28-1.37.24-2.09-.02-.52.46-.96.96-.96.54,0,.94.44.96.96.14,3.06-1.51,5.87-4.1,7.33,1.8.82,3.62,1.4,5.65,1.15,2.07-.25,3.99-1.25,5.41-2.76.85-.9,2.2.46,1.36,1.36Z"/>
      <path class="cls-29" d="m44.46,86.03C20.74,86.03,1.45,66.73,1.45,43.01S20.74,0,44.46,0s43.01,19.3,43.01,43.01-19.3,43.02-43.01,43.02Zm0-84.58C21.54,1.45,2.89,20.09,2.89,43.01s18.65,41.57,41.57,41.57,41.57-18.65,41.57-41.57S67.38,1.45,44.46,1.45Z"/>
    </g>
    <g>
      <path class="cls-3" d="m61.1,145c-.77-1.64-1.91-3.2-3.53-4.01-2.21-1.11-4.83-.52-7.26-.05-8.64,1.69-15.74-.63-19.95,1.7-3.36,1.86-4.41,6.31-3.8,10.1.6,3.79,2.47,7.25,3.57,10.92,2.4,8.02,1.08,16.62-.04,24.92-.16,1.16-.3,2.38.14,3.47.44,1.08,1.68,1.94,2.78,1.53.84-.32,1.29-1.21,1.66-2.04,1.8-4.01,3.6-8.02,5.4-12.03.62-1.38,1.51-2.96,3.02-3.09,1.33-.11,2.43,1,3.23,2.07,2.46,3.26,4.28,6.99,5.32,10.94.31,1.17.56,2.39,1.23,3.4.67,1.01,1.88,1.78,3.07,1.52,1.79-.4,2.34-2.65,2.4-4.48.28-8.37-2.29-16.97.1-25,1.09-3.67,3.18-7.03,3.87-10.8.55-3.05.13-6.26-1.19-9.06Zm-25.73.18c-2.03.6-3.64,2.16-4.22,4.21-.67,2.4.34,4.72,1.33,6.87.22.48.14,1.04-.35,1.32-.42.25-1.11.13-1.32-.35-1.24-2.7-2.4-5.57-1.47-8.56.81-2.61,2.9-4.6,5.51-5.36,1.2-.35,1.71,1.52.51,1.87Z"/>
      <path class="cls-7" d="m44.46,210.39c-23.72,0-43.01-19.3-43.01-43.01s19.3-43.01,43.01-43.01,43.01,19.3,43.01,43.01-19.3,43.01-43.01,43.01Zm0-84.58c-22.92,0-41.57,18.65-41.57,41.57s18.65,41.57,41.57,41.57,41.57-18.65,41.57-41.57-18.65-41.57-41.57-41.57Z"/>
    </g>
    <path class="cls-42" d="m214.8,140.3c-.23,0-.46-.09-.63-.27L119.37,42.22h-28.74c-.48,0-.87-.39-.87-.87s.39-.87.87-.87h29.48l.26.27,95.06,98.08c.33.35.33.9-.02,1.23-.17.16-.39.25-.61.25Z"/>
    <path class="cls-42" d="m195.64,176.59s-.06,0-.09,0l-84.73-8.35h-20.2c-.48,0-.87-.39-.87-.87s.39-.87.87-.87h20.29l84.81,8.35c.48.05.83.48.78.95-.05.45-.42.79-.87.79Z"/>
    <path class="cls-42" d="m115.2,297.74h-24.58c-.48,0-.87-.39-.87-.87s.39-.87.87-.87h24.14l91.6-48.38c.42-.22.95-.06,1.18.36.22.43.06.95-.36,1.18l-91.99,48.58Z"/>
    <path class="cls-42" d="m229.95,245.12c-.14,0-.28-.03-.41-.1-.43-.23-.59-.75-.36-1.18l108.08-203.3h14.78c.48,0,.87.39.87.87s-.39.87-.87.87h-13.73l-107.59,202.37c-.16.29-.46.46-.77.46Z"/>
    <path class="cls-42" d="m236.63,318.64c-.17,0-.34-.05-.5-.16-.4-.27-.5-.82-.22-1.21l104.08-150.77h12.04c.48,0,.87.39.87.87s-.39.87-.87.87h-11.13l-103.57,150.02c-.17.25-.44.38-.72.38Z"/>
    <path class="cls-42" d="m199.2,343.28c-.35,0-.68-.21-.82-.56-.17-.45.06-.95.51-1.12l144.52-54.72h8.63c.48,0,.87.39.87.87s-.39.87-.87.87h-8.31l-144.22,54.6c-.1.04-.21.06-.31.06Z"/>
    <path class="cls-43" d="m203.1,342.41c0,2.15-1.75,3.9-3.9,3.9s-3.9-1.75-3.9-3.9,1.75-3.9,3.9-3.9,3.9,1.75,3.9,3.9Z"/>
    <path class="cls-43" d="m240.53,317.77c0,2.15-1.75,3.9-3.9,3.9s-3.9-1.75-3.9-3.9,1.75-3.9,3.9-3.9,3.9,1.75,3.9,3.9Z"/>
    <path class="cls-43" d="m233.85,244.25c0,2.15-1.75,3.9-3.9,3.9s-3.9-1.75-3.9-3.9,1.75-3.9,3.9-3.9,3.9,1.75,3.9,3.9Z"/>
    <path class="cls-43" d="m210.68,248.15c0,2.15-1.75,3.9-3.9,3.9s-3.9-1.75-3.9-3.9,1.75-3.9,3.9-3.9,3.9,1.75,3.9,3.9Z"/>
    <path class="cls-43" d="m199.54,175.72c0,2.15-1.75,3.9-3.9,3.9s-3.9-1.75-3.9-3.9,1.75-3.9,3.9-3.9,3.9,1.75,3.9,3.9Z"/>
    <path class="cls-43" d="m218.7,138.93c0,2.15-1.75,3.9-3.9,3.9s-3.9-1.75-3.9-3.9,1.75-3.9,3.9-3.9,3.9,1.75,3.9,3.9Z"/>
  </g>
  <g>
    <g>
      <g>
        <polygon class="cls-57" points="215.64 46.71 204.41 36.15 180.69 27.79 174.92 43.61 173.42 43.06 179.73 25.77 205.26 34.76 216.73 45.55 215.64 46.71"/>
        <rect class="cls-14" x="203.19" y="29.84" width="15.76" height="1.59" transform="translate(25.37 135.53) rotate(-37.72)"/>
        <rect class="cls-34" x="176.1" y="16.06" width="28.06" height="1.59" transform="translate(43.77 139.38) rotate(-45)"/>
        <path class="cls-47" d="m188.67,26.78c0,4.67-3.79,8.46-8.46,8.46s-8.46-3.79-8.46-8.46,3.79-8.46,8.46-8.46,8.46,3.79,8.46,8.46Z"/>
        <circle class="cls-56" cx="198.38" cy="8.22" r="6.44"/>
        <path class="cls-45" d="m210.86,35.45c0,3.45-2.79,6.24-6.24,6.24s-6.24-2.79-6.24-6.24,2.79-6.24,6.24-6.24,6.24,2.79,6.24,6.24Z"/>
        <path class="cls-35" d="m221.34,25.81c0,2.23-1.81,4.04-4.04,4.04s-4.04-1.81-4.04-4.04,1.81-4.04,4.04-4.04,4.04,1.81,4.04,4.04Z"/>
        <circle class="cls-66" cx="216.19" cy="45.74" r="3.72"/>
        <path class="cls-51" d="m179.38,43.34c0,2.88-2.33,5.21-5.21,5.21s-5.21-2.33-5.21-5.21,2.33-5.21,5.21-5.21,5.21,2.33,5.21,5.21Z"/>
      </g>
      <g>
        <rect class="cls-11" x="277.81" y="46.35" width="1.54" height="26.23" transform="translate(111.64 290.27) rotate(-66.17)"/>
        <rect class="cls-54" x="244.02" y="79.85" width="18.22" height="1.54" transform="translate(-11.81 61.05) rotate(-13.44)"/>
        <polygon class="cls-55" points="256.81 93.82 255.38 93.26 261.38 77.96 292.15 62.21 280.51 88.73 279.1 88.11 289 65.56 262.6 79.07 256.81 93.82"/>
        <path class="cls-30" d="m285.29,72.76c-4.42-2.92-5.64-8.87-2.72-13.29,2.92-4.42,8.87-5.64,13.29-2.72,4.42,2.92,5.64,8.87,2.72,13.29-2.92,4.42-8.87,5.64-13.29,2.72Z"/>
        <path class="cls-20" d="m275.78,94.52c-3.37-2.22-4.3-6.76-2.07-10.13,2.22-3.37,6.76-4.3,10.13-2.07,3.37,2.22,4.3,6.76,2.07,10.13-2.22,3.37-6.76,4.3-10.13,2.07Z"/>
        <path class="cls-52" d="m258.09,84.14c-3.26-2.15-4.16-6.54-2.01-9.81,2.15-3.26,6.54-4.16,9.81-2.01,3.26,2.15,4.16,6.54,2.01,9.81-2.15,3.26-6.54,4.16-9.81,2.01Z"/>
        <path class="cls-41" d="m253.57,97.37c-2.11-1.4-2.69-4.24-1.3-6.35,1.4-2.11,4.24-2.69,6.35-1.3,2.11,1.4,2.69,4.24,1.3,6.35-1.4,2.11-4.24,2.69-6.35,1.3Z"/>
        <path class="cls-18" d="m242.7,86.26c-1.94-1.28-2.48-3.9-1.2-5.85,1.28-1.94,3.9-2.48,5.85-1.2s2.48,3.9,1.2,5.85c-1.28,1.94-3.9,2.48-5.85,1.2Z"/>
        <path class="cls-13" d="m263.33,59.53c-2.72-1.8-3.47-5.46-1.67-8.19,1.8-2.72,5.46-3.47,8.19-1.67,2.72,1.8,3.47,5.46,1.67,8.19-1.8,2.72-5.46,3.47-8.19,1.67Z"/>
      </g>
    </g>
    <g>
      <path class="cls-28" d="m369.98,499.43c-.22,0-.45-.09-.62-.26-5.92-5.92-12.55-5.15-19.57-4.34-7.12.82-14.49,1.68-21-4.84-6.52-6.52-5.67-13.88-4.84-21,.81-7.02,1.58-13.65-4.34-19.57-.34-.34-.34-.89,0-1.23.34-.34.89-.34,1.23,0,6.52,6.52,5.67,13.88,4.84,21-.81,7.02-1.58,13.65,4.34,19.57,5.92,5.92,12.55,5.15,19.57,4.34,7.12-.82,14.49-1.68,21,4.84.34.34.34.89,0,1.23-.17.17-.39.26-.62.26Z"/>
      <path class="cls-53" d="m354.2,515.21c-.22,0-.45-.09-.62-.26-6.52-6.52-5.67-13.88-4.84-21,.81-7.02,1.58-13.65-4.34-19.57-5.92-5.92-12.55-5.15-19.57-4.34-7.12.83-14.49,1.68-21-4.84-.34-.34-.34-.89,0-1.23s.89-.34,1.23,0c5.92,5.92,12.55,5.15,19.57,4.34,7.12-.82,14.49-1.67,21,4.84,6.52,6.52,5.67,13.88,4.84,21-.81,7.02-1.58,13.65,4.34,19.57.34.34.34.89,0,1.23-.17.17-.39.26-.62.26Z"/>
      <path class="cls-24" d="m306.1,466.94c-.22,0-.45-.09-.62-.26-.34-.34-.34-.89,0-1.23l15.6-15.6c.34-.34.89-.34,1.23,0,.34.34.34.89,0,1.23l-15.6,15.6c-.17.17-.39.26-.62.26Z"/>
      <path class="cls-9" d="m310.28,469.36c-.22,0-.45-.09-.62-.26-.34-.34-.34-.89,0-1.23l13.85-13.85c.34-.34.89-.34,1.23,0,.34.34.34.89,0,1.23l-13.85,13.85c-.17.17-.39.26-.62.26Z"/>
      <path class="cls-33" d="m315.8,470.54c-.22,0-.45-.09-.62-.26-.34-.34-.34-.89,0-1.23l9.51-9.51c.34-.34.89-.34,1.23,0,.34.34.34.89,0,1.23l-9.51,9.51c-.17.17-.39.26-.62.26Z"/>
      <path class="cls-48" d="m352.94,513.77c-.22,0-.45-.09-.62-.26-.34-.34-.34-.89,0-1.23l15.6-15.6c.34-.34.89-.34,1.23,0,.34.34.34.89,0,1.23l-15.6,15.6c-.17.17-.39.26-.62.26Z"/>
      <path class="cls-4" d="m350.52,509.6c-.22,0-.45-.09-.62-.26-.34-.34-.34-.89,0-1.23l13.85-13.85c.34-.34.89-.34,1.23,0s.34.89,0,1.23l-13.85,13.85c-.17.17-.39.26-.62.26Z"/>
      <path class="cls-60" d="m349.34,504.07c-.22,0-.45-.09-.62-.26-.34-.34-.34-.89,0-1.23l9.51-9.51c.34-.34.89-.34,1.23,0s.34.89,0,1.23l-9.51,9.51c-.17.17-.39.26-.62.26Z"/>
      <path class="cls-39" d="m329.41,490.24c-.22,0-.45-.09-.62-.26-.34-.34-.34-.89,0-1.23l15.6-15.6c.34-.34.89-.34,1.23,0,.34.34.34.89,0,1.23l-15.6,15.6c-.17.17-.39.26-.62.26Z"/>
      <path class="cls-63" d="m334.38,493.71c-.22,0-.45-.09-.62-.26-.34-.34-.34-.89,0-1.23l14.15-14.14c.34-.34.89-.34,1.23,0,.34.34.34.89,0,1.23l-14.15,14.14c-.17.17-.39.26-.62.26Z"/>
      <path class="cls-62" d="m340.25,495.39c-.22,0-.45-.09-.62-.26-.34-.34-.34-.89,0-1.23l9.82-9.82c.34-.34.89-.34,1.23,0,.34.34.34.89,0,1.23l-9.82,9.82c-.17.17-.39.26-.62.26Z"/>
      <path class="cls-19" d="m325.95,485.27c-.22,0-.45-.09-.62-.26-.34-.34-.34-.89,0-1.23l14.14-14.15c.34-.34.89-.34,1.23,0,.34.34.34.89,0,1.23l-14.14,14.15c-.17.17-.39.26-.62.26Z"/>
      <path class="cls-27" d="m324.42,479.24c-.22,0-.44-.08-.61-.25-.34-.34-.34-.88,0-1.22l9.68-9.68c.34-.34.88-.34,1.22,0,.34.34.34.88,0,1.22l-9.68,9.68c-.17.17-.39.25-.61.25Z"/>
    </g>
    <g>
      <path class="cls-22" d="m94,567.65c-8.38,2.35-20.62-16.1-27.87-41.99-7.25-25.89-6.36-48.01,2.02-50.36,8.38-2.35,20.62,16.1,27.87,41.99,7.25,25.89,6.36,48.01-2.02,50.36Zm-25.55-91.29c-7.52,2.11-8.1,24.54-1.26,49,6.84,24.45,18.98,43.33,26.51,41.23,7.52-2.11,8.1-24.54,1.26-49-6.84-24.45-18.98-43.33-26.51-41.23Z"/>
      <path class="cls-2" d="m62.02,562.87c-2.29.64-4.28.53-5.85-.42-3.64-2.21-4.38-8.59-2.08-17.96,2.25-9.17,7.12-20.21,13.73-31.07,13.97-22.97,30.74-37.43,38.17-32.91,7.44,4.52,2.32,26.06-11.65,49.03-11.01,18.12-23.77,30.94-32.32,33.33Zm38.49-81.74c-8.13,2.27-21.1,15.35-31.74,32.85-6.55,10.77-11.38,21.69-13.6,30.76-2.14,8.74-1.57,14.84,1.58,16.76,6.68,4.06,23.46-10.84,36.65-32.54h0c13.19-21.7,18.7-43.46,12.02-47.52-1.29-.78-2.96-.86-4.91-.32Z"/>
      <path class="cls-10" d="m118.85,546.96c-8.55,2.39-26.1-1.94-44.93-11.71-23.86-12.39-39.42-28.14-35.41-35.86,4.01-7.72,25.84-4.07,49.71,8.31h0c11.29,5.86,21.18,12.76,27.86,19.43,6.83,6.82,9.51,12.65,7.55,16.43-.85,1.63-2.49,2.76-4.78,3.4Zm-75.33-49.88c-1.95.55-3.34,1.48-4.03,2.82-3.6,6.94,12.4,22.68,34.94,34.37,22.54,11.7,44.62,15.72,48.22,8.78,1.7-3.27-.98-8.79-7.35-15.14-6.6-6.59-16.4-13.42-27.59-19.23h0c-18.18-9.43-36.06-13.88-44.19-11.6Z"/>
      <path class="cls-16" d="m84.79,520.43c.57,2.05-.62,4.18-2.68,4.76s-4.18-.62-4.76-2.68c-.57-2.05.62-4.18,2.68-4.76,2.05-.57,4.18.62,4.76,2.68Z"/>
      <path class="cls-38" d="m87.56,490.7c.36,1.3-.39,2.64-1.69,3-1.3.36-2.64-.39-3-1.69-.36-1.3.39-2.64,1.69-3,1.3-.36,2.64.39,3,1.69Z"/>
      <path class="cls-40" d="m70.76,531.04c.35,1.23-.37,2.51-1.61,2.86-1.23.35-2.51-.37-2.86-1.61-.35-1.23.37-2.51,1.61-2.86,1.23-.35,2.51.37,2.86,1.61Z"/>
    </g>
    <g>
      <path class="cls-8" d="m357.38,671.38l-16.91,2.02-10.21-13.64,6.7-15.66,16.91-2.02,10.21,13.64-6.7,15.66Zm-16.58,1.24l16.07-1.92,6.37-14.88-9.7-12.95-16.07,1.92-6.37,14.88,9.7,12.95Z"/>
      <path class="cls-61" d="m380.41,654.14l-16.91,2.02-10.21-13.64,6.7-15.66,16.91-2.02,10.21,13.64-6.7,15.66Zm-16.58,1.24l16.07-1.92,6.37-14.88-9.7-12.95-16.07,1.92-6.37,14.88,9.7,12.95Z"/>
      <path class="cls-6" d="m353.95,642.81l-16.91,2.02-10.21-13.64,6.7-15.66,16.91-2.02,10.21,13.64-6.7,15.66Zm-16.58,1.24l16.07-1.92,6.37-14.88-9.7-12.95-16.07,1.92-6.37,14.88,9.7,12.95Z"/>
      <path class="cls-26" d="m355.28,641.29c.65.87.48,2.11-.4,2.76-.87.65-2.11.48-2.76-.4-.65-.87-.48-2.11.4-2.76.87-.65,2.11-.48,2.76.4Z"/>
      <path class="cls-17" d="m361.82,626.03c.65.87.48,2.11-.4,2.76-.87.65-2.11.48-2.76-.4-.65-.87-.48-2.11.4-2.76.87-.65,2.11-.48,2.76.4Z"/>
      <path class="cls-31" d="m352,612.91c.65.87.48,2.11-.4,2.76-.87.65-2.11.48-2.76-.4-.65-.87-.48-2.11.4-2.76.87-.65,2.11-.48,2.76.4Z"/>
      <path class="cls-32" d="m365.33,654.7c.65.87.48,2.11-.4,2.76-.87.65-2.11.48-2.76-.4-.65-.87-.48-2.11.4-2.76.87-.65,2.11-.48,2.76.4Z"/>
      <path class="cls-23" d="m338.79,643.27c.65.87.48,2.11-.4,2.76-.87.65-2.11.48-2.76-.4-.65-.87-.48-2.11.4-2.76.87-.65,2.11-.48,2.76.4Z"/>
      <path class="cls-37" d="m332.25,658.53c.65.87.48,2.11-.4,2.76-.87.65-2.11.48-2.76-.4-.65-.87-.48-2.11.4-2.76.87-.65,2.11-.48,2.76.4Z"/>
    </g>
  </g>
</svg>