<?xml version="1.0" encoding="UTF-8"?>
<svg id="Layer_1" data-name="Layer 1" xmlns="http://www.w3.org/2000/svg" viewBox="0 0 21.32 31.91">
  <path d="m14.21,6.67c.18,2.03-.12,3.87-1.67,5.28-1.38,1.26-3.05,1.62-4.95,1.36.93-2.48,2.4-4.41,4.86-5.52-.96-.05-3.09,1.24-4.16,2.49-1.09,1.27-1.77,2.74-2.11,4.47-.16-1.47-.05-2.82.4-4.14.67-1.96,2.02-3.13,4.01-3.61,1.18-.29,2.37-.3,3.62-.34Z"/>
  <path d="m4.06,20.26c.84-.96,1.45-2.04,2.61-2.51.61-.25,1.28-.42,1.93-.47,1.13-.09,2.28,0,3.41-.1,2.95-.25,5.46-2.7,6.05-5.62.73-3.64-1.79-7.38-5.55-8.18-3.28-.7-6,.22-8.03,2.92-.9,1.2-1.31,2.57-1.31,4.08,0,6.1,0,12.2,0,18.3,0,1.55-1,2.82-2.49,3.17-.21.05-.42.05-.67.07,0-.19-.02-.32-.02-.45,0-7.09,0-14.18,0-21.26C.02,5.52,3.35,1.4,7.92.35c3.89-.9,7.37-.08,10.29,2.66,2.45,2.3,3.43,5.21,3.03,8.55-.53,4.39-3.76,7.81-8.1,8.61-.64.12-1.31.13-1.97.13-2.25.01-4.5,0-6.75-.01-.09,0-.18-.01-.36-.03Z"/>
</svg>