<svg version="1.2" xmlns="http://www.w3.org/2000/svg" viewBox="0 0 800 800" width="800" height="800">
	<title>integration-svgrepo-com (1)</title>
	<style>
		.s0 { fill: #ffffff } 
		.s1 { fill: none } 
	</style>
	<path class="s0" d="m747 388l-150-275q-1.6-3-4-5.4-2.3-2.4-5.2-4.1-2.9-1.7-6.2-2.6-3.2-0.9-6.6-0.9h-350q-3.4 0-6.6 0.9-3.3 0.9-6.2 2.6-2.9 1.7-5.2 4.1-2.4 2.4-4 5.4l-150 275q-1.6 2.9-2.5 6-0.8 3.2-0.8 6.5 0 3.3 0.8 6.5 0.9 3.1 2.5 6l150 275q1.7 2.8 4.1 5.1 2.4 2.3 5.3 3.9 2.9 1.5 6.1 2.3 3.2 0.8 6.5 0.7h350q3.4 0 6.6-0.9 3.3-0.9 6.2-2.6 2.9-1.7 5.2-4.1 2.4-2.4 4-5.4l150-275q1.5-2.8 2.3-5.8 0.8-3.1 0.8-6.2 0-3.1-0.8-6.2-0.8-3-2.3-5.8zm-173.8-213l109.8 200h-237.5zm-173.2 178.5l-129.5-203.5h258.9zm-173.2-178.5l127.8 200h-237.5zm-109.8 250h237.5l-127.7 200zm283 21.5l129.5 203.5h-259zm173.2 178.5l-127.7-200h237.5z"/>
	<path id="_Transparent_Rectangle_" fill-rule="evenodd" class="s1" d="m0 0h800v800h-800z"/>
</svg>