<?xml version="1.0" encoding="UTF-8"?>
<svg id="Layer_1" data-name="Layer 1" xmlns="http://www.w3.org/2000/svg" viewBox="0 0 432.9 118.88">
  <defs>
    <style>
      .cls-1 {
        fill: #fff;
      }

      .cls-2 {
        fill: none;
        stroke: #000;
        stroke-miterlimit: 10;
        stroke-width: 2px;
      }

      .cls-3 {
        fill: #231f20;
      }
    </style>
  </defs>
  <circle cx="59.44" cy="59.44" r="59.44"/>
  <g>
    <path class="cls-1" d="m32.01,64.75v33.54h12.83v-23.92s-5.65-4.64-12.83-9.61Z"/>
    <path class="cls-1" d="m89.75,20.67v61.76c.05,6.58-2.44,11.92-9.39,15.06-1.51.59-3.3.11-4.47-.97,0,0-35.89-33.08-35.89-33.08-10.28-9.14-15.59-27.91-5.68-39.17,0,0,3.45-3.68,3.45-3.68l3.27.02,6.21,7.93c.57.72.85,1.53.85,2.45v-.04h.02s-3.02,0-3.02,0l-.06,4.63h8.67s3.66,3.3,3.66,3.3c1.37,1.24,2.15,3,2.15,4.84h-16.89v4.63l23.31.06,3.32,4.04c.61.74.94,1.67.94,2.62l-24.09.04v4.48l23.01-.02c2.65.18,5.47,1.95,6.07,4.66,0,0-.12,3.52-.12,3.52l-17.08.09,4.01,4.35c.2.21.48.33.77.33l11.69.02v2.02c0,2.5-2,4.53-4.5,4.57l4.56,4.45c.28.27.64.44,1.03.47.63.05,1.24-.26,1.56-.81,1.99-3.4,8.22-16.25.21-32.28-.7-1.39-1.07-2.92-1.07-4.48v-25.87s13.49.07,13.49.07Z"/>
  </g>
  <g>
    <path class="cls-3" d="m134.13,36.58h8.77l20.12,37.87h.07v-37.87h7.76v51.16h-8.69l-20.19-37.65h-.14v37.65h-7.69v-51.16Z"/>
    <path class="cls-3" d="m183.06,87.2c-1.53-.84-2.72-2.02-3.56-3.56-.84-1.53-1.26-3.26-1.26-5.17,0-2.2.43-4.1,1.29-5.68s2.26-2.91,4.2-3.99c1.94-1.08,4.49-1.93,7.65-2.55l6.75-1.29v-1.94c0-2.11-.42-3.65-1.26-4.63-.84-.98-2.22-1.47-4.13-1.47-2.01,0-3.5.52-4.45,1.54-.96,1.03-1.46,2.55-1.51,4.56l-7.11-.57c.19-3.88,1.42-6.72,3.7-8.52,2.27-1.8,5.52-2.69,9.74-2.69s7.2.92,9.23,2.77c2.04,1.84,3.05,4.71,3.05,8.59v18.47c0,2.59.07,4.81.22,6.68h-7.19c-.14-1.15-.22-2.68-.22-4.6h-.07c-.91,1.72-2.22,3.04-3.92,3.95-1.7.91-3.65,1.37-5.86,1.37-2.01,0-3.78-.42-5.32-1.26Zm11.35-5.64c1.15-.62,2.06-1.57,2.73-2.84.67-1.27,1.01-2.79,1.01-4.56v-3.81l-5.75,1.22c-2.44.53-4.19,1.27-5.25,2.23-1.05.96-1.58,2.28-1.58,3.95,0,1.48.45,2.65,1.37,3.48.91.84,2.11,1.26,3.59,1.26s2.73-.31,3.88-.93Z"/>
    <path class="cls-3" d="m213.82,52.03h7.4v4.45h.14c.81-1.68,2-2.96,3.56-3.84,1.56-.89,3.37-1.33,5.43-1.33,3.26,0,5.91,1.02,7.97,3.05,2.06,2.04,3.09,5.23,3.09,9.59v23.78h-7.4v-22.78c0-2.44-.53-4.24-1.58-5.39-1.05-1.15-2.49-1.72-4.31-1.72-2.11,0-3.78.73-5.03,2.19-1.25,1.46-1.87,3.44-1.87,5.93v21.77h-7.4v-35.71Z"/>
    <path class="cls-3" d="m254.81,86.23c-2.28-1.53-4.01-3.71-5.21-6.54-1.2-2.83-1.8-6.11-1.8-9.84s.6-7.01,1.8-9.81c1.2-2.8,2.93-4.97,5.21-6.5,2.27-1.53,5.02-2.3,8.23-2.3s5.95.77,8.23,2.3c2.27,1.53,4.01,3.7,5.21,6.5,1.2,2.8,1.8,6.07,1.8,9.81s-.6,7.02-1.8,9.84c-1.2,2.83-2.93,5.01-5.21,6.54-2.28,1.53-5.02,2.3-8.23,2.3s-5.95-.77-8.23-2.3Zm14.05-7.33c1.34-2.2,2.01-5.22,2.01-9.05s-.67-6.78-2.01-8.98c-1.34-2.2-3.28-3.31-5.82-3.31s-4.48,1.1-5.82,3.31c-1.34,2.2-2.01,5.2-2.01,8.98s.67,6.85,2.01,9.05c1.34,2.2,3.28,3.31,5.82,3.31s4.48-1.1,5.82-3.31Z"/>
    <path class="cls-3" d="m296.02,87.13c-1.63-.89-2.85-2.07-3.66-3.56h-.14v4.17h-7.4v-51.16h7.4v19.76h.14c.81-1.48,2.02-2.69,3.63-3.63,1.6-.93,3.49-1.4,5.64-1.4,4.65,0,8.05,1.7,10.2,5.1,2.16,3.4,3.23,7.88,3.23,13.44s-1.08,10.11-3.23,13.51c-2.16,3.4-5.56,5.1-10.2,5.1-2.11,0-3.98-.44-5.6-1.33Zm9.7-8.3c1.29-2.2,1.94-5.2,1.94-8.98s-.65-6.71-1.94-8.91c-1.29-2.2-3.23-3.3-5.82-3.3s-4.41,1.09-5.75,3.27c-1.34,2.18-2.01,5.16-2.01,8.95s.67,6.78,2.01,8.98c1.34,2.2,3.26,3.3,5.75,3.3s4.53-1.1,5.82-3.3Z"/>
    <path class="cls-3" d="m321.67,36.58h7.4v51.16h-7.4v-51.16Z"/>
    <path class="cls-3" d="m342.22,86.27c-2.2-1.51-3.86-3.63-4.96-6.36-1.1-2.73-1.65-5.96-1.65-9.7,0-5.94,1.25-10.59,3.74-13.94,2.49-3.35,6.15-5.03,10.99-5.03,3.21,0,5.9.79,8.08,2.37,2.18,1.58,3.81,3.77,4.89,6.57,1.08,2.8,1.62,6.05,1.62,9.74v1.72h-21.84c0,3.4.66,6.04,1.98,7.9,1.32,1.87,3.27,2.8,5.86,2.8,3.54,0,6.11-2.15,7.69-6.47l5.96,2.73c-1.34,3.21-3.2,5.67-5.57,7.37-2.37,1.7-5.23,2.55-8.59,2.55s-5.99-.75-8.19-2.26Zm15.3-20.08c-.1-2.88-.75-5.14-1.98-6.79-1.22-1.65-2.98-2.48-5.28-2.48s-3.93.86-5.17,2.59c-1.25,1.72-1.92,3.95-2.01,6.68h14.44Z"/>
    <path class="cls-3" d="m373.87,86.01c-2.66-1.68-4.42-4.1-5.28-7.26l6.04-2.95c.91,2.35,2.11,4.06,3.59,5.14,1.48,1.08,3.33,1.62,5.53,1.62,1.82,0,3.27-.42,4.35-1.26s1.62-1.93,1.62-3.27c0-1.01-.26-1.84-.79-2.51-.53-.67-1.33-1.25-2.41-1.72-1.08-.48-2.55-.91-4.42-1.29-3.74-.81-6.57-2.07-8.51-3.77-1.94-1.7-2.91-4.08-2.91-7.15,0-2.11.53-3.94,1.58-5.5,1.05-1.56,2.51-2.75,4.38-3.59,1.87-.84,3.98-1.26,6.32-1.26,3.02,0,5.69.65,8.01,1.94,2.32,1.29,3.96,3.19,4.92,5.68l-5.39,2.87c-1.53-3.11-4.07-4.67-7.62-4.67-1.48,0-2.72.36-3.7,1.08-.98.72-1.47,1.68-1.47,2.87,0,1.01.26,1.82.79,2.44.53.62,1.32,1.15,2.37,1.58,1.05.43,2.54.86,4.46,1.29,3.88.91,6.75,2.22,8.62,3.92s2.8,4.11,2.8,7.22c0,2.25-.56,4.21-1.69,5.89-1.13,1.68-2.68,2.96-4.67,3.84-1.99.89-4.25,1.33-6.79,1.33-3.83,0-7.08-.84-9.74-2.51Z"/>
  </g>
  <g>
    <path class="cls-3" d="m418.52,63.18l3.96,5.71h-3.16l-3.68-5.3h-3.63v5.3h-2.57v-16.72h6.3c4.06,0,6.82,2.29,6.82,5.71,0,2.57-1.54,4.5-4.04,5.3Zm-2.98-8.44h-3.52v6.28h3.52c2.7,0,4.45-1.23,4.45-3.16s-1.75-3.11-4.45-3.11Z"/>
    <circle class="cls-2" cx="416" cy="60.53" r="15.9"/>
  </g>
</svg>