<?xml version="1.0" encoding="utf-8"?>
<!-- Generator: Adobe Illustrator 27.3.1, SVG Export Plug-In . SVG Version: 6.00 Build 0)  -->
<svg version="1.1" id="Layer_1" xmlns="http://www.w3.org/2000/svg" xmlns:xlink="http://www.w3.org/1999/xlink" x="0px" y="0px"
	 viewBox="0 0 547.3 180.5" style="enable-background:new 0 0 547.3 180.5;" xml:space="preserve">
<style type="text/css">
	.st0{fill:#4DAF4E;}
	.st1{fill:#FFFFFF;}
</style>
<path d="M32.4,0h482.5c17.9,0,32.4,14.4,32.4,32.1v116.3c0,17.7-14.5,32.1-32.4,32.1H32.4C14.5,180.5,0,166.1,0,148.4V32.1
	C0,14.4,14.5,0,32.4,0z"/>
<g>
	<circle class="st0" cx="83.2" cy="89.7" r="55.5"/>
	<path class="st0" d="M83.5,22.9c-36.7,0-66.4,29.7-66.4,66.4s29.7,66.4,66.4,66.4s66.4-29.7,66.4-66.4S120.1,22.9,83.5,22.9z
		 M83.2,149.2c-33.1,0-59.9-26.8-59.9-59.9s26.8-59.9,59.9-59.9s59.9,26.8,59.9,59.9S116.3,149.2,83.2,149.2z"/>
</g>
<g>
	<path class="st1" d="M533,82.1l3.4,5h-2.8l-3.2-4.6h-3.1V87h-2.2V72.5h5.5c3.5,0,5.9,2,5.9,5C536.5,79.7,535.2,81.4,533,82.1
		L533,82.1z M530.5,74.7h-3.1v5.5h3.1c2.4,0,3.9-1.1,3.9-2.8S532.8,74.7,530.5,74.7L530.5,74.7z"/>
	<path class="st1" d="M530.9,94.6c-8.2,0-14.8-6.7-14.8-14.8s6.6-14.8,14.8-14.8s14.8,6.7,14.8,14.8S539,94.6,530.9,94.6z
		 M530.9,66.9c-7.1,0-12.8,5.8-12.8,12.8s5.8,12.8,12.8,12.8s12.8-5.8,12.8-12.8S537.9,66.9,530.9,66.9z"/>
</g>
<g>
	<path class="st1" d="M183.9,69.9c4.3,0,7.9,1.4,10.8,4.2c2.9,2.8,4.3,6.2,4.3,10.4s-1.4,7.6-4.3,10.4s-6.5,4.2-10.8,4.2h-10.6v16.3
		h-5.7V69.9L183.9,69.9L183.9,69.9z M183.6,93.5c2.8,0,5.1-0.9,6.9-2.6c1.8-1.7,2.7-3.9,2.7-6.5s-0.9-4.8-2.7-6.5
		c-1.8-1.7-4.1-2.6-6.9-2.6h-10.3v18.1H183.6z"/>
	<path class="st1" d="M206.5,115.3V67.8h5.5v47.5H206.5z"/>
	<path class="st1" d="M253,80.3h4.4v35h-4.6l-0.6-5.3c-1.6,1.9-3.6,3.4-6,4.5c-2.4,1.1-4.9,1.6-7.7,1.6c-3.4,0-6.5-0.8-9.2-2.4
		c-2.8-1.6-4.9-3.8-6.5-6.6c-1.6-2.8-2.4-5.9-2.4-9.3c0-5.2,1.7-9.6,5.2-13.1c3.4-3.5,7.8-5.2,12.9-5.2c2.8,0,5.4,0.5,7.8,1.6
		c2.4,1.1,4.4,2.6,6.1,4.5L253,80.3L253,80.3z M229.7,107.1c2.4,2.5,5.5,3.7,9.2,3.7s6.8-1.2,9.2-3.7s3.7-5.6,3.7-9.3
		s-1.2-6.8-3.7-9.3s-5.5-3.7-9.2-3.7s-6.8,1.2-9.2,3.7c-2.4,2.5-3.7,5.6-3.7,9.2S227.2,104.6,229.7,107.1L229.7,107.1z"/>
	<path class="st1" d="M286,79.6c4.1,0,7.4,1.4,9.8,4.2s3.7,6.3,3.7,10.7v21H294V95.7c0-3.6-0.8-6.3-2.4-8.2c-1.6-1.9-4-2.9-7-2.9
		S279,85.7,277,88s-3,5-3,8.3v19.1h-5.5v-35h3.9l1.1,5.5c1.3-2,3.1-3.5,5.3-4.6C280.8,80.1,283.3,79.6,286,79.6L286,79.6z"/>
	<path class="st1" d="M324.2,110.2h3.8v5.1h-4.5c-3.8,0-6.8-1.1-8.9-3.3s-3.2-5.2-3.2-9V85.3h-6.2v-1L316,72.9h0.9v7.4h11v5h-11
		v17.6c0,2.4,0.6,4.2,1.9,5.4S321.8,110.2,324.2,110.2L324.2,110.2z"/>
	<path class="st1" d="M370.2,116c-4.4,0-8.4-1-12-3s-6.3-4.8-8.3-8.3c-2-3.6-3-7.6-3-12.1s1-8.5,3-12.1c2-3.6,4.8-6.3,8.3-8.3
		c3.5-2,7.5-3,12-3c5.3,0,9.8,1.4,13.7,4.3s6.5,6.8,7.8,11.7h-5.8c-1.2-3.3-3.2-5.8-6-7.7c-2.8-1.9-6-2.8-9.7-2.8
		c-5.1,0-9.3,1.7-12.5,5c-3.3,3.3-4.9,7.6-4.9,12.8s1.6,9.5,4.9,12.8c3.3,3.3,7.5,5,12.5,5c3.8,0,7.1-1,9.9-3s4.8-4.7,6-8.2h5.8
		c-1.3,5.1-3.9,9.2-7.8,12.2C380.2,114.5,375.6,116,370.2,116L370.2,116z"/>
	<path class="st1" d="M417.2,79.6c4.2,0,7.5,1.3,9.9,4c2.4,2.7,3.6,6.3,3.6,10.8v21h-5.5V95.7c0-3.6-0.8-6.3-2.4-8.2s-4-2.9-7-2.9
		s-5.5,1.1-7.5,3.4s-3,5-3,8.3v19.1h-5.5V67.8h5.5v17.3c1.4-1.8,3.1-3.1,5.2-4.1S414.7,79.6,417.2,79.6L417.2,79.6z"/>
	<path class="st1" d="M471.2,80.3h4.4v35H471l-0.6-5.3c-1.6,1.9-3.6,3.4-6,4.5s-4.9,1.6-7.7,1.6c-3.4,0-6.5-0.8-9.2-2.4
		c-2.8-1.6-4.9-3.8-6.5-6.6c-1.6-2.8-2.4-5.9-2.4-9.3c0-5.2,1.7-9.6,5.2-13.1c3.5-3.5,7.8-5.2,12.9-5.2c2.8,0,5.4,0.5,7.8,1.6
		c2.4,1.1,4.4,2.6,6,4.5L471.2,80.3L471.2,80.3z M447.9,107.1c2.5,2.5,5.5,3.7,9.2,3.7s6.8-1.2,9.2-3.7s3.7-5.6,3.7-9.3
		s-1.2-6.8-3.7-9.3s-5.5-3.7-9.2-3.7s-6.8,1.2-9.2,3.7c-2.5,2.5-3.7,5.6-3.7,9.2S445.4,104.6,447.9,107.1L447.9,107.1z"/>
	<path class="st1" d="M501.1,110.2h3.8v5.1h-4.5c-3.8,0-6.8-1.1-8.9-3.3s-3.2-5.2-3.2-9V85.3h-6.2v-1l10.8-11.4h0.9v7.4h11v5h-11
		v17.6c0,2.4,0.6,4.2,1.9,5.4S498.7,110.2,501.1,110.2L501.1,110.2z"/>
</g>
<g>
	<path d="M91.1,66.8c0.4,5-0.3,9.6-4.1,13c-3.4,3.1-7.5,4-12.2,3.4c2.3-6.1,5.9-10.9,12-13.6c-2.4-0.1-7.6,3.1-10.3,6.1
		c-2.7,3.1-4.4,6.8-5.2,11c-0.4-3.6-0.1-6.9,1-10.2c1.6-4.8,5-7.7,9.9-8.9C85,67,88,66.9,91.1,66.8L91.1,66.8z"/>
	<path d="M66,100.4c2.1-2.4,3.6-5,6.4-6.2c1.5-0.6,3.2-1,4.8-1.2c2.8-0.2,5.6,0,8.4-0.2c7.3-0.6,13.5-6.7,14.9-13.9
		c1.8-9-4.4-18.2-13.7-20.2c-8.1-1.7-14.8,0.5-19.8,7.2c-2.2,2.9-3.2,6.3-3.2,10.1c0,15,0,30.1,0,45.1c0,3.8-2.5,7-6.1,7.8
		c-0.5,0.1-1,0.1-1.7,0.2c0-0.5,0-0.8,0-1.1c0-17.5,0-35,0-52.4c0-11.5,8.2-21.7,19.5-24.3c9.6-2.2,18.2-0.2,25.4,6.6
		c6,5.7,8.5,12.8,7.5,21.1c-1.3,10.8-9.3,19.3-20,21.2c-1.6,0.3-3.2,0.3-4.9,0.3c-5.6,0-11.1,0-16.7,0
		C66.7,100.4,66.5,100.4,66,100.4L66,100.4z"/>
</g>
</svg>
