<svg version="1.2" xmlns="http://www.w3.org/2000/svg" viewBox="0 0 800 800" width="800" height="800">
	<title>survey</title>
	<style>
		.s0 { fill: #ffffff } 
		.s1 { fill: none } 
	</style>
	<path class="s0" d="m633.3 700h-466.6v-533.3h66.6v66.6h333.4v-66.6h66.6v72.4l33.4-33.4v-72.4h-100v-33.3h-100c0-17.7-7.1-34.6-19.6-47.1-12.5-12.5-29.4-19.6-47.1-19.6-17.7 0-34.6 7.1-47.1 19.6-12.5 12.5-19.6 29.4-19.6 47.1h-100v33.3h-100v600h533.4v-339l-33.4 33.3zm-366.6-566.7h100v-46.1c0-2.7 0.5-5.4 1.5-7.9 1.1-2.5 2.6-4.7 4.5-6.6 1.9-1.9 4.1-3.4 6.6-4.5 2.5-1 5.1-1.5 7.8-1.5h25.7c2.7 0 5.4 0.5 7.9 1.5 2.5 1.1 4.7 2.6 6.6 4.5 1.9 1.9 3.4 4.1 4.5 6.6 1 2.5 1.5 5.2 1.5 7.9v46.1h100v66.7h-266.6zm488.2 54.9l23.5 23.5-295.1 295.2-128.4-128.5 23.5-23.6 104.9 104.9z"/>
	<path class="s1" d="m0 0h800v800h-800z"/>
</svg>